<?xml version="1.0" encoding="UTF-8"?>
<svg xmlns="http://www.w3.org/2000/svg" xmlns:xlink="http://www.w3.org/1999/xlink" width="381.235937pt" height="449.347188pt" viewBox="0 0 381.235937 449.347188" version="1.2">
<defs>
<g>
<symbol overflow="visible" id="glyph0-0">
<path style="stroke:none;" d="M 1.734375 -1.160156 L 3.980469 -1.160156 L 3.980469 -8.929688 L 1.535156 -8.4375 L 1.535156 -9.695312 L 3.96875 -10.1875 L 5.351562 -10.1875 L 5.351562 -1.160156 L 7.601562 -1.160156 L 7.601562 0 L 1.734375 0 Z M 1.734375 -1.160156 "/>
</symbol>
<symbol overflow="visible" id="glyph0-1">
<path style="stroke:none;" d="M 4.441406 -9.277344 C 3.730469 -9.277344 3.199219 -8.929688 2.835938 -8.230469 C 2.472656 -7.53125 2.304688 -6.484375 2.304688 -5.085938 C 2.304688 -3.6875 2.472656 -2.640625 2.835938 -1.941406 C 3.199219 -1.242188 3.730469 -0.894531 4.441406 -0.894531 C 5.15625 -0.894531 5.6875 -1.242188 6.050781 -1.941406 C 6.398438 -2.640625 6.582031 -3.6875 6.582031 -5.085938 C 6.582031 -6.484375 6.398438 -7.53125 6.050781 -8.230469 C 5.6875 -8.929688 5.15625 -9.277344 4.441406 -9.277344 Z M 4.441406 -10.367188 C 5.574219 -10.367188 6.441406 -9.90625 7.054688 -9.011719 C 7.65625 -8.105469 7.964844 -6.789062 7.964844 -5.085938 C 7.964844 -3.367188 7.65625 -2.054688 7.054688 -1.160156 C 6.441406 -0.265625 5.574219 0.179688 4.429688 0.179688 C 3.285156 0.179688 2.417969 -0.265625 1.816406 -1.160156 C 1.214844 -2.054688 0.921875 -3.367188 0.921875 -5.085938 C 0.921875 -6.789062 1.214844 -8.105469 1.816406 -9.011719 C 2.417969 -9.90625 3.296875 -10.367188 4.441406 -10.367188 Z M 4.441406 -10.367188 "/>
</symbol>
<symbol overflow="visible" id="glyph0-2">
<path style="stroke:none;" d="M 1.269531 -10.617188 L 2.527344 -10.617188 L 2.527344 -4.34375 L 6.273438 -7.644531 L 7.878906 -7.644531 L 3.828125 -4.066406 L 8.046875 0 L 6.414062 0 L 2.527344 -3.730469 L 2.527344 0 L 1.269531 0 Z M 1.269531 -10.617188 "/>
</symbol>
<symbol overflow="visible" id="glyph0-3">
<path style="stroke:none;" d="M 1.0625 -5.308594 L 2.460938 -5.308594 L 2.460938 -9.472656 L 0.9375 -9.195312 L 0.9375 -9.988281 L 2.5 -10.253906 L 3.4375 -10.253906 L 3.4375 -5.308594 L 4.835938 -5.308594 L 4.835938 -4.554688 L 1.0625 -4.554688 Z M 1.0625 -5.308594 "/>
</symbol>
<symbol overflow="visible" id="glyph0-4">
<path style="stroke:none;" d="M 1.832031 -5.335938 L 4.722656 -5.335938 L 4.722656 -4.554688 L 0.644531 -4.554688 L 0.644531 -5.308594 C 0.796875 -5.449219 1.019531 -5.644531 1.300781 -5.894531 C 2.863281 -7.28125 3.648438 -8.1875 3.648438 -8.621094 C 3.648438 -8.914062 3.519531 -9.152344 3.285156 -9.347656 C 3.046875 -9.527344 2.738281 -9.625 2.359375 -9.625 C 2.125 -9.625 1.871094 -9.585938 1.59375 -9.5 C 1.3125 -9.417969 1.007812 -9.304688 0.683594 -9.152344 L 0.683594 -9.988281 C 1.019531 -10.117188 1.339844 -10.214844 1.648438 -10.269531 C 1.957031 -10.324219 2.234375 -10.367188 2.5 -10.367188 C 3.15625 -10.367188 3.6875 -10.214844 4.078125 -9.921875 C 4.472656 -9.613281 4.679688 -9.222656 4.679688 -8.734375 C 4.679688 -8.089844 3.925781 -7.125 2.417969 -5.839844 C 2.164062 -5.617188 1.96875 -5.449219 1.832031 -5.335938 Z M 1.832031 -5.335938 "/>
</symbol>
<symbol overflow="visible" id="glyph1-0">
<path style="stroke:none;" d="M -0.0351562 -12.367188 L 10.417969 -12.367188 L 10.417969 -10.960938 L 6.023438 -10.960938 L 6.023438 0 L 4.34375 0 L 4.34375 -10.960938 L -0.0351562 -10.960938 Z M -0.0351562 -12.367188 "/>
</symbol>
<symbol overflow="visible" id="glyph1-1">
<path style="stroke:none;" d="M 9.535156 -5.023438 L 9.535156 -4.277344 L 2.527344 -4.277344 C 2.597656 -3.222656 2.902344 -2.410156 3.476562 -1.867188 C 4.039062 -1.324219 4.816406 -1.050781 5.835938 -1.050781 C 6.414062 -1.050781 6.988281 -1.121094 7.53125 -1.253906 C 8.074219 -1.390625 8.636719 -1.613281 9.179688 -1.917969 L 9.179688 -0.476562 C 8.636719 -0.238281 8.074219 -0.0507812 7.5 0.0507812 C 6.921875 0.152344 6.328125 0.21875 5.75 0.21875 C 4.257812 0.21875 3.085938 -0.203125 2.222656 -1.050781 C 1.355469 -1.898438 0.933594 -3.070312 0.933594 -4.546875 C 0.933594 -6.058594 1.339844 -7.261719 2.15625 -8.160156 C 2.96875 -9.042969 4.089844 -9.5 5.480469 -9.5 C 6.734375 -9.5 7.71875 -9.09375 8.449219 -8.296875 C 9.160156 -7.480469 9.535156 -6.394531 9.535156 -5.023438 Z M 8.007812 -5.464844 C 7.992188 -6.292969 7.753906 -6.957031 7.3125 -7.464844 C 6.855469 -7.957031 6.242188 -8.210938 5.496094 -8.210938 C 4.648438 -8.210938 3.96875 -7.957031 3.460938 -7.480469 C 2.953125 -7.007812 2.648438 -6.328125 2.578125 -5.464844 Z M 8.007812 -5.464844 "/>
</symbol>
<symbol overflow="visible" id="glyph1-2">
<path style="stroke:none;" d="M 8.824219 -7.5 C 9.195312 -8.175781 9.652344 -8.667969 10.179688 -9.007812 C 10.707031 -9.332031 11.332031 -9.5 12.0625 -9.5 C 13.011719 -9.5 13.757812 -9.160156 14.285156 -8.484375 C 14.8125 -7.804688 15.082031 -6.835938 15.082031 -5.597656 L 15.082031 0 L 13.554688 0 L 13.554688 -5.546875 C 13.554688 -6.429688 13.386719 -7.089844 13.082031 -7.53125 C 12.757812 -7.957031 12.285156 -8.175781 11.640625 -8.175781 C 10.839844 -8.175781 10.214844 -7.90625 9.753906 -7.378906 C 9.296875 -6.855469 9.078125 -6.140625 9.078125 -5.242188 L 9.078125 0 L 7.550781 0 L 7.550781 -5.546875 C 7.550781 -6.429688 7.378906 -7.089844 7.074219 -7.53125 C 6.753906 -7.957031 6.261719 -8.175781 5.617188 -8.175781 C 4.835938 -8.175781 4.207031 -7.90625 3.75 -7.378906 C 3.292969 -6.855469 3.070312 -6.140625 3.070312 -5.242188 L 3.070312 0 L 1.542969 0 L 1.542969 -9.28125 L 3.070312 -9.28125 L 3.070312 -7.839844 C 3.410156 -8.398438 3.835938 -8.824219 4.328125 -9.09375 C 4.800781 -9.363281 5.378906 -9.5 6.058594 -9.5 C 6.734375 -9.5 7.296875 -9.332031 7.769531 -8.992188 C 8.246094 -8.652344 8.585938 -8.144531 8.824219 -7.5 Z M 8.824219 -7.5 "/>
</symbol>
<symbol overflow="visible" id="glyph1-3">
<path style="stroke:none;" d="M 3.070312 -1.390625 L 3.070312 3.511719 L 1.542969 3.511719 L 1.542969 -9.28125 L 3.070312 -9.28125 L 3.070312 -7.871094 C 3.375 -8.414062 3.785156 -8.824219 4.277344 -9.09375 C 4.765625 -9.363281 5.359375 -9.5 6.039062 -9.5 C 7.160156 -9.5 8.074219 -9.042969 8.789062 -8.160156 C 9.484375 -7.261719 9.839844 -6.089844 9.839844 -4.632812 C 9.839844 -3.171875 9.484375 -1.984375 8.789062 -1.101562 C 8.074219 -0.21875 7.160156 0.21875 6.039062 0.21875 C 5.359375 0.21875 4.765625 0.0859375 4.277344 -0.167969 C 3.785156 -0.425781 3.375 -0.832031 3.070312 -1.390625 Z M 8.261719 -4.632812 C 8.261719 -5.75 8.023438 -6.617188 7.566406 -7.261719 C 7.089844 -7.90625 6.464844 -8.226562 5.667969 -8.226562 C 4.851562 -8.226562 4.222656 -7.90625 3.765625 -7.261719 C 3.292969 -6.617188 3.070312 -5.75 3.070312 -4.632812 C 3.070312 -3.511719 3.292969 -2.628906 3.765625 -1.984375 C 4.222656 -1.339844 4.851562 -1.035156 5.667969 -1.035156 C 6.464844 -1.035156 7.089844 -1.339844 7.566406 -1.984375 C 8.023438 -2.628906 8.261719 -3.511719 8.261719 -4.632812 Z M 8.261719 -4.632812 "/>
</symbol>
<symbol overflow="visible" id="glyph1-4">
<path style="stroke:none;" d="M 5.191406 -8.210938 C 4.378906 -8.210938 3.734375 -7.890625 3.257812 -7.246094 C 2.78125 -6.601562 2.542969 -5.734375 2.542969 -4.632812 C 2.542969 -3.511719 2.765625 -2.648438 3.242188 -2.003906 C 3.714844 -1.355469 4.359375 -1.050781 5.191406 -1.050781 C 6.007812 -1.050781 6.652344 -1.355469 7.125 -2.003906 C 7.601562 -2.648438 7.839844 -3.511719 7.839844 -4.632812 C 7.839844 -5.71875 7.601562 -6.601562 7.125 -7.246094 C 6.652344 -7.890625 6.007812 -8.210938 5.191406 -8.210938 Z M 5.191406 -9.5 C 6.515625 -9.5 7.550781 -9.058594 8.3125 -8.210938 C 9.058594 -7.347656 9.449219 -6.160156 9.449219 -4.632812 C 9.449219 -3.105469 9.058594 -1.917969 8.3125 -1.070312 C 7.550781 -0.203125 6.515625 0.21875 5.191406 0.21875 C 3.851562 0.21875 2.800781 -0.203125 2.054688 -1.070312 C 1.304688 -1.917969 0.933594 -3.105469 0.933594 -4.632812 C 0.933594 -6.160156 1.304688 -7.347656 2.054688 -8.210938 C 2.800781 -9.058594 3.851562 -9.5 5.191406 -9.5 Z M 5.191406 -9.5 "/>
</symbol>
<symbol overflow="visible" id="glyph1-5">
<path style="stroke:none;" d="M 5.257812 -12.878906 C 4.511719 -11.585938 3.96875 -10.332031 3.613281 -9.09375 C 3.242188 -7.855469 3.070312 -6.601562 3.070312 -5.328125 C 3.070312 -4.039062 3.242188 -2.78125 3.613281 -1.542969 C 3.96875 -0.289062 4.511719 0.949219 5.257812 2.222656 L 3.9375 2.222656 C 3.105469 0.917969 2.476562 -0.339844 2.070312 -1.59375 C 1.664062 -2.851562 1.460938 -4.089844 1.460938 -5.328125 C 1.460938 -6.550781 1.664062 -7.789062 2.070312 -9.042969 C 2.476562 -10.296875 3.085938 -11.570312 3.9375 -12.878906 Z M 5.257812 -12.878906 "/>
</symbol>
<symbol overflow="visible" id="glyph1-6">
<path style="stroke:none;" d="M 1.664062 -12.367188 L 4.15625 -12.367188 L 7.3125 -3.953125 L 10.484375 -12.367188 L 12.980469 -12.367188 L 12.980469 0 L 11.351562 0 L 11.351562 -10.859375 L 8.160156 -2.375 L 6.480469 -2.375 L 3.292969 -10.859375 L 3.292969 0 L 1.664062 0 Z M 1.664062 -12.367188 "/>
</symbol>
<symbol overflow="visible" id="glyph1-7">
<path style="stroke:none;" d="M 5.464844 0.847656 C 5.023438 1.933594 4.597656 2.664062 4.191406 3.003906 C 3.785156 3.34375 3.242188 3.511719 2.5625 3.511719 L 1.339844 3.511719 L 1.339844 2.238281 L 2.238281 2.238281 C 2.648438 2.238281 2.96875 2.136719 3.207031 1.933594 C 3.445312 1.730469 3.699219 1.273438 3.988281 0.527344 L 4.257812 -0.152344 L 0.507812 -9.28125 L 2.121094 -9.28125 L 5.023438 -2.019531 L 7.921875 -9.28125 L 9.535156 -9.28125 Z M 5.464844 0.847656 "/>
</symbol>
<symbol overflow="visible" id="glyph1-8">
<path style="stroke:none;" d="M 6.972656 -7.855469 C 6.804688 -7.957031 6.617188 -8.023438 6.414062 -8.074219 C 6.210938 -8.109375 5.988281 -8.144531 5.75 -8.144531 C 4.886719 -8.144531 4.222656 -7.855469 3.765625 -7.296875 C 3.292969 -6.734375 3.070312 -5.9375 3.070312 -4.886719 L 3.070312 0 L 1.542969 0 L 1.542969 -9.28125 L 3.070312 -9.28125 L 3.070312 -7.839844 C 3.375 -8.398438 3.800781 -8.824219 4.308594 -9.09375 C 4.816406 -9.363281 5.445312 -9.5 6.191406 -9.5 C 6.292969 -9.5 6.414062 -9.484375 6.550781 -9.484375 C 6.667969 -9.46875 6.804688 -9.449219 6.972656 -9.417969 Z M 6.972656 -7.855469 "/>
</symbol>
<symbol overflow="visible" id="glyph1-9">
<path style="stroke:none;" d="M 1.355469 -12.878906 L 2.679688 -12.878906 C 3.496094 -11.570312 4.121094 -10.296875 4.53125 -9.042969 C 4.9375 -7.789062 5.15625 -6.550781 5.15625 -5.328125 C 5.15625 -4.089844 4.9375 -2.851562 4.53125 -1.59375 C 4.121094 -0.339844 3.496094 0.917969 2.679688 2.222656 L 1.355469 2.222656 C 2.085938 0.949219 2.628906 -0.289062 3.003906 -1.542969 C 3.359375 -2.78125 3.546875 -4.039062 3.546875 -5.328125 C 3.546875 -6.601562 3.359375 -7.855469 3.003906 -9.09375 C 2.628906 -10.332031 2.085938 -11.585938 1.355469 -12.878906 Z M 1.355469 -12.878906 "/>
</symbol>
<symbol overflow="visible" id="glyph2-0">
<path style="stroke:none;" d="M -12.960938 -3.5625 L 3.988281 -3.5625 L 3.988281 -2.15625 L -12.960938 -2.15625 Z M -12.960938 -3.5625 "/>
</symbol>
<symbol overflow="visible" id="glyph2-1">
<path style="stroke:none;" d="M -12.894531 -1.460938 L -12.894531 -4.972656 L -11.707031 -4.972656 L -11.707031 -2.984375 L 1.035156 -2.984375 L 1.035156 -4.972656 L 2.222656 -4.972656 L 2.222656 -1.460938 Z M -12.894531 -1.460938 "/>
</symbol>
<symbol overflow="visible" id="glyph2-2">
<path style="stroke:none;" d="M -12.367188 -4.308594 L -12.367188 -5.71875 L 1.5625 -1.40625 L 1.5625 0 Z M -12.367188 -4.308594 "/>
</symbol>
<symbol overflow="visible" id="glyph2-3">
<path style="stroke:none;" d="M 0.847656 -5.464844 C 1.933594 -5.023438 2.664062 -4.597656 3.003906 -4.191406 C 3.34375 -3.785156 3.511719 -3.242188 3.511719 -2.5625 L 3.511719 -1.339844 L 2.238281 -1.339844 L 2.238281 -2.238281 C 2.238281 -2.648438 2.136719 -2.96875 1.933594 -3.207031 C 1.730469 -3.445312 1.273438 -3.699219 0.527344 -3.988281 L -0.152344 -4.257812 L -9.28125 -0.507812 L -9.28125 -2.121094 L -2.019531 -5.023438 L -9.28125 -7.921875 L -9.28125 -9.535156 Z M 0.847656 -5.464844 "/>
</symbol>
<symbol overflow="visible" id="glyph2-4">
<path style="stroke:none;" d="M -7.855469 -6.972656 C -7.957031 -6.804688 -8.023438 -6.617188 -8.074219 -6.414062 C -8.109375 -6.210938 -8.144531 -5.988281 -8.144531 -5.75 C -8.144531 -4.886719 -7.855469 -4.222656 -7.296875 -3.765625 C -6.734375 -3.292969 -5.9375 -3.070312 -4.886719 -3.070312 L 0 -3.070312 L 0 -1.542969 L -9.28125 -1.542969 L -9.28125 -3.070312 L -7.839844 -3.070312 C -8.398438 -3.375 -8.824219 -3.800781 -9.09375 -4.308594 C -9.363281 -4.816406 -9.5 -5.445312 -9.5 -6.191406 C -9.5 -6.292969 -9.484375 -6.414062 -9.484375 -6.550781 C -9.46875 -6.667969 -9.449219 -6.804688 -9.417969 -6.972656 Z M -7.855469 -6.972656 "/>
</symbol>
<symbol overflow="visible" id="glyph2-5">
<path style="stroke:none;" d="M -12.894531 -5.15625 L 2.222656 -5.15625 L 2.222656 -1.644531 L 1.035156 -1.644531 L 1.035156 -3.628906 L -11.707031 -3.628906 L -11.707031 -1.644531 L -12.894531 -1.644531 Z M -12.894531 -5.15625 "/>
</symbol>
<symbol overflow="visible" id="glyph3-0">
<path style="stroke:none;" d="M -12.367188 -2.867188 L -12.367188 -5.378906 L -4.039062 -6.820312 L -12.367188 -11.605469 L -12.367188 -14.183594 L 0 -11.773438 L 0 -10.144531 L -10.839844 -12.25 L -2.375 -7.398438 L -2.375 -5.769531 L -10.875 -4.191406 L 0 -2.085938 L 0 -0.457031 Z M -12.367188 -2.867188 "/>
</symbol>
<symbol overflow="visible" id="glyph4-0">
<path style="stroke:none;" d="M 1.484375 -0.992188 L 3.414062 -0.992188 L 3.414062 -7.652344 L 1.316406 -7.234375 L 1.316406 -8.3125 L 3.402344 -8.730469 L 4.585938 -8.730469 L 4.585938 -0.992188 L 6.515625 -0.992188 L 6.515625 0 L 1.484375 0 Z M 1.484375 -0.992188 "/>
</symbol>
<symbol overflow="visible" id="glyph4-1">
<path style="stroke:none;" d="M 1.402344 -1.484375 L 2.632812 -1.484375 L 2.632812 -0.480469 L 1.675781 1.378906 L 0.921875 1.378906 L 1.402344 -0.480469 Z M 1.402344 -1.484375 "/>
</symbol>
<symbol overflow="visible" id="glyph4-2">
<path style="stroke:none;" d="M 3.808594 -7.953125 C 3.199219 -7.953125 2.742188 -7.652344 2.429688 -7.054688 C 2.121094 -6.453125 1.976562 -5.558594 1.976562 -4.359375 C 1.976562 -3.160156 2.121094 -2.261719 2.429688 -1.664062 C 2.742188 -1.066406 3.199219 -0.765625 3.808594 -0.765625 C 4.417969 -0.765625 4.875 -1.066406 5.1875 -1.664062 C 5.484375 -2.261719 5.640625 -3.160156 5.640625 -4.359375 C 5.640625 -5.558594 5.484375 -6.453125 5.1875 -7.054688 C 4.875 -7.652344 4.417969 -7.953125 3.808594 -7.953125 Z M 3.808594 -8.886719 C 4.777344 -8.886719 5.519531 -8.492188 6.046875 -7.722656 C 6.5625 -6.945312 6.828125 -5.820312 6.828125 -4.359375 C 6.828125 -2.886719 6.5625 -1.761719 6.046875 -0.992188 C 5.519531 -0.226562 4.777344 0.15625 3.796875 0.15625 C 2.8125 0.15625 2.070312 -0.226562 1.558594 -0.992188 C 1.042969 -1.761719 0.789062 -2.886719 0.789062 -4.359375 C 0.789062 -5.820312 1.042969 -6.945312 1.558594 -7.722656 C 2.070312 -8.492188 2.828125 -8.886719 3.808594 -8.886719 Z M 3.808594 -8.886719 "/>
</symbol>
<symbol overflow="visible" id="glyph4-3">
<path style="stroke:none;" d=""/>
</symbol>
<symbol overflow="visible" id="glyph4-4">
<path style="stroke:none;" d="M 1.171875 -8.730469 L 2.933594 -8.730469 L 5.160156 -2.789062 L 7.402344 -8.730469 L 9.160156 -8.730469 L 9.160156 0 L 8.011719 0 L 8.011719 -7.664062 L 5.761719 -1.675781 L 4.574219 -1.675781 L 2.324219 -7.664062 L 2.324219 0 L 1.171875 0 Z M 1.171875 -8.730469 "/>
</symbol>
<symbol overflow="visible" id="glyph4-5">
<path style="stroke:none;" d="M 3.710938 -9.089844 C 3.1875 -8.179688 2.800781 -7.292969 2.550781 -6.417969 C 2.289062 -5.542969 2.167969 -4.660156 2.167969 -3.761719 C 2.167969 -2.851562 2.289062 -1.964844 2.550781 -1.089844 C 2.800781 -0.203125 3.1875 0.671875 3.710938 1.570312 L 2.777344 1.570312 C 2.191406 0.648438 1.75 -0.238281 1.460938 -1.125 C 1.171875 -2.011719 1.03125 -2.886719 1.03125 -3.761719 C 1.03125 -4.621094 1.171875 -5.496094 1.460938 -6.382812 C 1.75 -7.269531 2.179688 -8.167969 2.777344 -9.089844 Z M 3.710938 -9.089844 "/>
</symbol>
<symbol overflow="visible" id="glyph4-6">
<path style="stroke:none;" d="M 2.167969 -0.980469 L 2.167969 2.480469 L 1.089844 2.480469 L 1.089844 -6.550781 L 2.167969 -6.550781 L 2.167969 -5.558594 C 2.382812 -5.941406 2.671875 -6.226562 3.019531 -6.417969 C 3.367188 -6.609375 3.785156 -6.707031 4.261719 -6.707031 C 5.054688 -6.707031 5.699219 -6.382812 6.203125 -5.761719 C 6.695312 -5.125 6.945312 -4.300781 6.945312 -3.269531 C 6.945312 -2.238281 6.695312 -1.402344 6.203125 -0.777344 C 5.699219 -0.15625 5.054688 0.15625 4.261719 0.15625 C 3.785156 0.15625 3.367188 0.0585938 3.019531 -0.121094 C 2.671875 -0.300781 2.382812 -0.585938 2.167969 -0.980469 Z M 5.832031 -3.269531 C 5.832031 -4.058594 5.664062 -4.671875 5.339844 -5.125 C 5.007812 -5.582031 4.5625 -5.808594 4 -5.808594 C 3.425781 -5.808594 2.980469 -5.582031 2.660156 -5.125 C 2.324219 -4.671875 2.167969 -4.058594 2.167969 -3.269531 C 2.167969 -2.480469 2.324219 -1.855469 2.660156 -1.402344 C 2.980469 -0.945312 3.425781 -0.730469 4 -0.730469 C 4.5625 -0.730469 5.007812 -0.945312 5.339844 -1.402344 C 5.664062 -1.855469 5.832031 -2.480469 5.832031 -3.269531 Z M 5.832031 -3.269531 "/>
</symbol>
<symbol overflow="visible" id="glyph4-7">
<path style="stroke:none;" d="M 6.730469 -3.542969 L 6.730469 -3.019531 L 1.785156 -3.019531 C 1.832031 -2.277344 2.046875 -1.699219 2.457031 -1.316406 C 2.851562 -0.933594 3.402344 -0.742188 4.121094 -0.742188 C 4.527344 -0.742188 4.933594 -0.789062 5.316406 -0.886719 C 5.699219 -0.980469 6.097656 -1.136719 6.480469 -1.351562 L 6.480469 -0.335938 C 6.097656 -0.167969 5.699219 -0.0351562 5.292969 0.0351562 C 4.886719 0.109375 4.46875 0.15625 4.058594 0.15625 C 3.007812 0.15625 2.179688 -0.144531 1.570312 -0.742188 C 0.957031 -1.339844 0.660156 -2.167969 0.660156 -3.210938 C 0.660156 -4.277344 0.945312 -5.125 1.519531 -5.761719 C 2.097656 -6.382812 2.886719 -6.707031 3.867188 -6.707031 C 4.753906 -6.707031 5.449219 -6.417969 5.964844 -5.855469 C 6.46875 -5.28125 6.730469 -4.515625 6.730469 -3.542969 Z M 5.652344 -3.855469 C 5.640625 -4.441406 5.472656 -4.910156 5.160156 -5.269531 C 4.839844 -5.617188 4.40625 -5.796875 3.878906 -5.796875 C 3.28125 -5.796875 2.800781 -5.617188 2.441406 -5.28125 C 2.082031 -4.945312 1.867188 -4.46875 1.820312 -3.855469 Z M 5.652344 -3.855469 "/>
</symbol>
<symbol overflow="visible" id="glyph4-8">
<path style="stroke:none;" d="M 4.921875 -5.542969 C 4.800781 -5.617188 4.671875 -5.664062 4.527344 -5.699219 C 4.382812 -5.722656 4.226562 -5.75 4.058594 -5.75 C 3.449219 -5.75 2.980469 -5.542969 2.660156 -5.148438 C 2.324219 -4.753906 2.167969 -4.191406 2.167969 -3.449219 L 2.167969 0 L 1.089844 0 L 1.089844 -6.550781 L 2.167969 -6.550781 L 2.167969 -5.53125 C 2.382812 -5.929688 2.683594 -6.226562 3.042969 -6.417969 C 3.402344 -6.609375 3.84375 -6.707031 4.371094 -6.707031 C 4.441406 -6.707031 4.527344 -6.695312 4.621094 -6.695312 C 4.707031 -6.683594 4.800781 -6.671875 4.921875 -6.648438 Z M 4.921875 -5.542969 "/>
</symbol>
<symbol overflow="visible" id="glyph4-9">
<path style="stroke:none;" d="M 5.4375 -5.558594 L 5.4375 -9.101562 L 6.515625 -9.101562 L 6.515625 0 L 5.4375 0 L 5.4375 -0.980469 C 5.210938 -0.585938 4.921875 -0.300781 4.574219 -0.121094 C 4.226562 0.0585938 3.820312 0.15625 3.339844 0.15625 C 2.550781 0.15625 1.902344 -0.15625 1.402344 -0.777344 C 0.898438 -1.402344 0.660156 -2.238281 0.660156 -3.269531 C 0.660156 -4.300781 0.898438 -5.125 1.402344 -5.761719 C 1.902344 -6.382812 2.550781 -6.707031 3.339844 -6.707031 C 3.820312 -6.707031 4.226562 -6.609375 4.574219 -6.417969 C 4.921875 -6.226562 5.210938 -5.941406 5.4375 -5.558594 Z M 1.773438 -3.269531 C 1.773438 -2.480469 1.929688 -1.855469 2.25 -1.402344 C 2.574219 -0.945312 3.019531 -0.730469 3.59375 -0.730469 C 4.167969 -0.730469 4.609375 -0.945312 4.945312 -1.402344 C 5.269531 -1.855469 5.4375 -2.480469 5.4375 -3.269531 C 5.4375 -4.058594 5.269531 -4.671875 4.945312 -5.125 C 4.609375 -5.582031 4.167969 -5.808594 3.59375 -5.808594 C 3.019531 -5.808594 2.574219 -5.582031 2.25 -5.125 C 1.929688 -4.671875 1.773438 -4.058594 1.773438 -3.269531 Z M 1.773438 -3.269531 "/>
</symbol>
<symbol overflow="visible" id="glyph4-10">
<path style="stroke:none;" d="M 1.019531 -2.585938 L 1.019531 -6.550781 L 2.097656 -6.550781 L 2.097656 -2.621094 C 2.097656 -2 2.214844 -1.542969 2.457031 -1.234375 C 2.695312 -0.921875 3.054688 -0.765625 3.542969 -0.765625 C 4.121094 -0.765625 4.585938 -0.945312 4.921875 -1.316406 C 5.257812 -1.6875 5.425781 -2.191406 5.425781 -2.839844 L 5.425781 -6.550781 L 6.503906 -6.550781 L 6.503906 0 L 5.425781 0 L 5.425781 -1.007812 C 5.160156 -0.597656 4.851562 -0.3125 4.515625 -0.121094 C 4.167969 0.0585938 3.773438 0.15625 3.316406 0.15625 C 2.5625 0.15625 1.988281 -0.0703125 1.605469 -0.539062 C 1.210938 -0.992188 1.019531 -1.675781 1.019531 -2.585938 Z M 3.722656 -6.707031 Z M 3.722656 -6.707031 "/>
</symbol>
<symbol overflow="visible" id="glyph4-11">
<path style="stroke:none;" d="M 4.527344 -7.699219 L 1.542969 -3.042969 L 4.527344 -3.042969 Z M 4.214844 -8.730469 L 5.699219 -8.730469 L 5.699219 -3.042969 L 6.945312 -3.042969 L 6.945312 -2.058594 L 5.699219 -2.058594 L 5.699219 0 L 4.527344 0 L 4.527344 -2.058594 L 0.585938 -2.058594 L 0.585938 -3.199219 Z M 4.214844 -8.730469 "/>
</symbol>
<symbol overflow="visible" id="glyph4-12">
<path style="stroke:none;" d="M 3.953125 -4.839844 C 3.425781 -4.839844 3.007812 -4.648438 2.695312 -4.289062 C 2.382812 -3.929688 2.226562 -3.425781 2.226562 -2.800781 C 2.226562 -2.167969 2.382812 -1.664062 2.695312 -1.304688 C 3.007812 -0.945312 3.425781 -0.765625 3.953125 -0.765625 C 4.480469 -0.765625 4.898438 -0.945312 5.210938 -1.304688 C 5.519531 -1.664062 5.675781 -2.167969 5.675781 -2.800781 C 5.675781 -3.425781 5.519531 -3.929688 5.210938 -4.289062 C 4.898438 -4.648438 4.480469 -4.839844 3.953125 -4.839844 Z M 6.300781 -8.539062 L 6.300781 -7.460938 C 6 -7.605469 5.699219 -7.710938 5.402344 -7.785156 C 5.089844 -7.855469 4.789062 -7.890625 4.503906 -7.890625 C 3.710938 -7.890625 3.113281 -7.628906 2.707031 -7.101562 C 2.300781 -6.574219 2.058594 -5.773438 2.011719 -4.71875 C 2.238281 -5.054688 2.527344 -5.316406 2.875 -5.496094 C 3.222656 -5.675781 3.605469 -5.773438 4.023438 -5.773438 C 4.898438 -5.773438 5.59375 -5.496094 6.097656 -4.96875 C 6.597656 -4.441406 6.863281 -3.710938 6.863281 -2.800781 C 6.863281 -1.902344 6.585938 -1.1875 6.058594 -0.648438 C 5.53125 -0.109375 4.828125 0.15625 3.953125 0.15625 C 2.945312 0.15625 2.167969 -0.226562 1.640625 -0.992188 C 1.101562 -1.761719 0.839844 -2.886719 0.839844 -4.359375 C 0.839844 -5.738281 1.160156 -6.839844 1.820312 -7.652344 C 2.46875 -8.46875 3.351562 -8.886719 4.453125 -8.886719 C 4.742188 -8.886719 5.042969 -8.851562 5.351562 -8.800781 C 5.652344 -8.742188 5.964844 -8.660156 6.300781 -8.539062 Z M 6.300781 -8.539062 "/>
</symbol>
<symbol overflow="visible" id="glyph4-13">
<path style="stroke:none;" d="M 8.707031 -3.84375 C 8.371094 -3.84375 8.097656 -3.699219 7.902344 -3.414062 C 7.710938 -3.125 7.617188 -2.71875 7.617188 -2.203125 C 7.617188 -1.699219 7.710938 -1.292969 7.902344 -1.007812 C 8.097656 -0.71875 8.371094 -0.574219 8.707031 -0.574219 C 9.042969 -0.574219 9.304688 -0.71875 9.496094 -1.007812 C 9.6875 -1.292969 9.785156 -1.699219 9.785156 -2.203125 C 9.785156 -2.707031 9.6875 -3.113281 9.496094 -3.402344 C 9.304688 -3.6875 9.042969 -3.84375 8.707031 -3.84375 Z M 8.707031 -4.585938 C 9.316406 -4.585938 9.808594 -4.371094 10.167969 -3.941406 C 10.527344 -3.507812 10.71875 -2.921875 10.71875 -2.203125 C 10.71875 -1.472656 10.527344 -0.898438 10.167969 -0.480469 C 9.808594 -0.046875 9.316406 0.15625 8.707031 0.15625 C 8.082031 0.15625 7.582031 -0.046875 7.222656 -0.480469 C 6.863281 -0.898438 6.683594 -1.472656 6.683594 -2.203125 C 6.683594 -2.933594 6.863281 -3.507812 7.222656 -3.941406 C 7.582031 -4.371094 8.082031 -4.585938 8.707031 -4.585938 Z M 2.671875 -8.144531 C 2.335938 -8.144531 2.070312 -7.988281 1.878906 -7.699219 C 1.6875 -7.414062 1.59375 -7.019531 1.59375 -6.515625 C 1.59375 -5.988281 1.6875 -5.59375 1.878906 -5.304688 C 2.070312 -5.019531 2.335938 -4.875 2.671875 -4.875 C 3.007812 -4.875 3.28125 -5.019531 3.472656 -5.304688 C 3.664062 -5.59375 3.761719 -5.988281 3.761719 -6.515625 C 3.761719 -7.019531 3.652344 -7.414062 3.460938 -7.699219 C 3.269531 -7.988281 3.007812 -8.144531 2.671875 -8.144531 Z M 7.953125 -8.886719 L 8.886719 -8.886719 L 3.425781 0.15625 L 2.492188 0.15625 Z M 2.671875 -8.886719 C 3.28125 -8.886719 3.773438 -8.671875 4.144531 -8.238281 C 4.503906 -7.808594 4.695312 -7.234375 4.695312 -6.515625 C 4.695312 -5.773438 4.503906 -5.199219 4.144531 -4.765625 C 3.785156 -4.335938 3.292969 -4.132812 2.671875 -4.132812 C 2.046875 -4.132812 1.558594 -4.335938 1.199219 -4.765625 C 0.839844 -5.199219 0.660156 -5.773438 0.660156 -6.515625 C 0.660156 -7.234375 0.839844 -7.808594 1.199219 -8.238281 C 1.558594 -8.671875 2.046875 -8.886719 2.671875 -8.886719 Z M 2.671875 -8.886719 "/>
</symbol>
<symbol overflow="visible" id="glyph4-14">
<path style="stroke:none;" d="M 0.957031 -9.089844 L 1.890625 -9.089844 C 2.46875 -8.167969 2.910156 -7.269531 3.199219 -6.382812 C 3.484375 -5.496094 3.640625 -4.621094 3.640625 -3.761719 C 3.640625 -2.886719 3.484375 -2.011719 3.199219 -1.125 C 2.910156 -0.238281 2.46875 0.648438 1.890625 1.570312 L 0.957031 1.570312 C 1.472656 0.671875 1.855469 -0.203125 2.121094 -1.089844 C 2.371094 -1.964844 2.503906 -2.851562 2.503906 -3.761719 C 2.503906 -4.660156 2.371094 -5.542969 2.121094 -6.417969 C 1.855469 -7.292969 1.472656 -8.179688 0.957031 -9.089844 Z M 0.957031 -9.089844 "/>
</symbol>
<symbol overflow="visible" id="glyph4-15">
<path style="stroke:none;" d="M 1.292969 -8.730469 L 5.929688 -8.730469 L 5.929688 -7.738281 L 2.371094 -7.738281 L 2.371094 -5.59375 C 2.539062 -5.652344 2.71875 -5.699219 2.886719 -5.722656 C 3.054688 -5.75 3.234375 -5.773438 3.402344 -5.773438 C 4.371094 -5.773438 5.136719 -5.496094 5.710938 -4.96875 C 6.289062 -4.429688 6.574219 -3.710938 6.574219 -2.800781 C 6.574219 -1.855469 6.277344 -1.125 5.6875 -0.609375 C 5.101562 -0.0976562 4.277344 0.15625 3.222656 0.15625 C 2.851562 0.15625 2.480469 0.121094 2.097656 0.0703125 C 1.710938 0.0117188 1.328125 -0.0703125 0.921875 -0.203125 L 0.921875 -1.390625 C 1.269531 -1.199219 1.628906 -1.054688 2.011719 -0.957031 C 2.382812 -0.863281 2.777344 -0.828125 3.199219 -0.828125 C 3.867188 -0.828125 4.40625 -0.992188 4.800781 -1.351562 C 5.1875 -1.710938 5.390625 -2.191406 5.390625 -2.800781 C 5.390625 -3.402344 5.1875 -3.878906 4.800781 -4.238281 C 4.40625 -4.597656 3.867188 -4.777344 3.199219 -4.777344 C 2.886719 -4.777344 2.5625 -4.742188 2.25 -4.671875 C 1.941406 -4.597656 1.617188 -4.492188 1.292969 -4.347656 Z M 1.292969 -8.730469 "/>
</symbol>
<symbol overflow="visible" id="glyph4-16">
<path style="stroke:none;" d="M 3.808594 -4.144531 C 3.246094 -4.144531 2.800781 -3.988281 2.480469 -3.6875 C 2.15625 -3.390625 2 -2.980469 2 -2.457031 C 2 -1.929688 2.15625 -1.507812 2.480469 -1.210938 C 2.800781 -0.910156 3.246094 -0.765625 3.808594 -0.765625 C 4.359375 -0.765625 4.800781 -0.910156 5.125 -1.222656 C 5.449219 -1.519531 5.617188 -1.929688 5.617188 -2.457031 C 5.617188 -2.980469 5.449219 -3.390625 5.136719 -3.6875 C 4.8125 -3.988281 4.371094 -4.144531 3.808594 -4.144531 Z M 2.621094 -4.648438 C 2.121094 -4.765625 1.722656 -5.007812 1.4375 -5.351562 C 1.148438 -5.699219 1.019531 -6.121094 1.019531 -6.621094 C 1.019531 -7.316406 1.257812 -7.867188 1.761719 -8.277344 C 2.25 -8.683594 2.933594 -8.886719 3.808594 -8.886719 C 4.671875 -8.886719 5.351562 -8.683594 5.855469 -8.277344 C 6.347656 -7.867188 6.597656 -7.316406 6.597656 -6.621094 C 6.597656 -6.121094 6.453125 -5.699219 6.167969 -5.351562 C 5.878906 -5.007812 5.496094 -4.765625 4.992188 -4.648438 C 5.558594 -4.515625 6 -4.25 6.324219 -3.867188 C 6.632812 -3.484375 6.800781 -3.007812 6.800781 -2.457031 C 6.800781 -1.605469 6.539062 -0.957031 6.023438 -0.515625 C 5.496094 -0.0585938 4.753906 0.15625 3.796875 0.15625 C 2.839844 0.15625 2.097656 -0.0585938 1.582031 -0.515625 C 1.066406 -0.957031 0.8125 -1.605469 0.8125 -2.457031 C 0.8125 -3.007812 0.96875 -3.484375 1.292969 -3.867188 C 1.605469 -4.25 2.046875 -4.515625 2.621094 -4.648438 Z M 2.191406 -6.515625 C 2.191406 -6.058594 2.324219 -5.699219 2.609375 -5.449219 C 2.898438 -5.199219 3.292969 -5.078125 3.808594 -5.078125 C 4.3125 -5.078125 4.707031 -5.199219 4.992188 -5.449219 C 5.28125 -5.699219 5.425781 -6.058594 5.425781 -6.515625 C 5.425781 -6.96875 5.28125 -7.316406 4.992188 -7.570312 C 4.707031 -7.820312 4.3125 -7.953125 3.808594 -7.953125 C 3.292969 -7.953125 2.898438 -7.820312 2.609375 -7.570312 C 2.324219 -7.316406 2.191406 -6.96875 2.191406 -6.515625 Z M 2.191406 -6.515625 "/>
</symbol>
<symbol overflow="visible" id="glyph4-17">
<path style="stroke:none;" d="M 2.300781 -0.992188 L 6.417969 -0.992188 L 6.417969 0 L 0.875 0 L 0.875 -0.992188 C 1.316406 -1.449219 1.929688 -2.070312 2.707031 -2.863281 C 3.472656 -3.640625 3.964844 -4.144531 4.167969 -4.371094 C 4.550781 -4.789062 4.8125 -5.148438 4.957031 -5.449219 C 5.101562 -5.738281 5.1875 -6.035156 5.1875 -6.324219 C 5.1875 -6.777344 5.019531 -7.160156 4.695312 -7.449219 C 4.371094 -7.738281 3.953125 -7.890625 3.425781 -7.890625 C 3.054688 -7.890625 2.660156 -7.820312 2.25 -7.699219 C 1.84375 -7.570312 1.402344 -7.378906 0.933594 -7.113281 L 0.933594 -8.3125 C 1.414062 -8.503906 1.855469 -8.648438 2.261719 -8.742188 C 2.671875 -8.839844 3.054688 -8.886719 3.402344 -8.886719 C 4.300781 -8.886719 5.019531 -8.660156 5.558594 -8.203125 C 6.097656 -7.75 6.371094 -7.148438 6.371094 -6.394531 C 6.371094 -6.035156 6.300781 -5.6875 6.167969 -5.378906 C 6.035156 -5.054688 5.796875 -4.671875 5.4375 -4.238281 C 5.339844 -4.121094 5.03125 -3.796875 4.503906 -3.257812 C 3.976562 -2.71875 3.246094 -1.964844 2.300781 -0.992188 Z M 2.300781 -0.992188 "/>
</symbol>
<symbol overflow="visible" id="glyph4-18">
<path style="stroke:none;" d="M 0.980469 -8.730469 L 6.597656 -8.730469 L 6.597656 -8.226562 L 3.425781 0 L 2.191406 0 L 5.171875 -7.738281 L 0.980469 -7.738281 Z M 0.980469 -8.730469 "/>
</symbol>
</g>
<clipPath id="clip1">
  <path d="M 0 0.125 L 380.472656 0.125 L 380.472656 448.570312 L 0 448.570312 Z M 0 0.125 "/>
</clipPath>
<clipPath id="clip2">
  <path d="M 87 12.617188 L 89 12.617188 L 89 399.921875 L 87 399.921875 Z M 87 12.617188 "/>
</clipPath>
<clipPath id="clip3">
  <path d="M 141 12.617188 L 143 12.617188 L 143 399.921875 L 141 399.921875 Z M 141 12.617188 "/>
</clipPath>
<clipPath id="clip4">
  <path d="M 194 12.617188 L 196 12.617188 L 196 399.921875 L 194 399.921875 Z M 194 12.617188 "/>
</clipPath>
<clipPath id="clip5">
  <path d="M 248 12.617188 L 250 12.617188 L 250 399.921875 L 248 399.921875 Z M 248 12.617188 "/>
</clipPath>
<clipPath id="clip6">
  <path d="M 301 12.617188 L 303 12.617188 L 303 399.921875 L 301 399.921875 Z M 301 12.617188 "/>
</clipPath>
<clipPath id="clip7">
  <path d="M 355 12.617188 L 355.910156 12.617188 L 355.910156 399.921875 L 355 399.921875 Z M 355 12.617188 "/>
</clipPath>
<clipPath id="clip8">
  <path d="M 77.464844 363 L 355.910156 363 L 355.910156 365 L 77.464844 365 Z M 77.464844 363 "/>
</clipPath>
<clipPath id="clip9">
  <path d="M 77.464844 305 L 355.910156 305 L 355.910156 307 L 77.464844 307 Z M 77.464844 305 "/>
</clipPath>
<clipPath id="clip10">
  <path d="M 77.464844 246 L 355.910156 246 L 355.910156 248 L 77.464844 248 Z M 77.464844 246 "/>
</clipPath>
<clipPath id="clip11">
  <path d="M 77.464844 187 L 355.910156 187 L 355.910156 189 L 77.464844 189 Z M 77.464844 187 "/>
</clipPath>
<clipPath id="clip12">
  <path d="M 77.464844 129 L 355.910156 129 L 355.910156 131 L 77.464844 131 Z M 77.464844 129 "/>
</clipPath>
<clipPath id="clip13">
  <path d="M 77.464844 70 L 355.910156 70 L 355.910156 72 L 77.464844 72 Z M 77.464844 70 "/>
</clipPath>
<clipPath id="clip14">
  <path d="M 77.464844 12.617188 L 355.910156 12.617188 L 355.910156 14 L 77.464844 14 Z M 77.464844 12.617188 "/>
</clipPath>
</defs>
<g id="surface1">
<g clip-path="url(#clip1)" clip-rule="nonzero">
<path style=" stroke:none;fill-rule:nonzero;fill:rgb(100%,100%,100%);fill-opacity:1;" d="M 0 448.570312 L 380.472656 448.570312 L 380.472656 0.125 L 0 0.125 Z M 0 448.570312 "/>
</g>
<path style=" stroke:none;fill-rule:nonzero;fill:rgb(96.076965%,96.076965%,96.076965%);fill-opacity:1;" d="M 77.464844 399.921875 L 355.910156 399.921875 L 355.910156 12.617188 L 77.464844 12.617188 Z M 77.464844 399.921875 "/>
<g clip-path="url(#clip2)" clip-rule="nonzero">
<path style="fill:none;stroke-width:0.8;stroke-linecap:square;stroke-linejoin:round;stroke:rgb(100%,100%,100%);stroke-opacity:0.8;stroke-miterlimit:10;" d="M 88.43861 48.747679 L 88.43861 436.828591 " transform="matrix(0.998,0,0,-0.998,0,448.57205)"/>
</g>
<path style="fill:none;stroke-width:0.8;stroke-linecap:butt;stroke-linejoin:round;stroke:rgb(0%,0%,0%);stroke-opacity:1;stroke-miterlimit:10;" d="M 88.43861 48.747679 L 88.43861 45.248492 " transform="matrix(0.998,0,0,-0.998,0,448.57205)"/>
<g style="fill:rgb(0%,0%,0%);fill-opacity:1;">
  <use xlink:href="#glyph0-0" x="83.815769" y="417.528018"/>
</g>
<g clip-path="url(#clip3)" clip-rule="nonzero">
<path style="fill:none;stroke-width:0.8;stroke-linecap:square;stroke-linejoin:round;stroke:rgb(100%,100%,100%);stroke-opacity:0.8;stroke-miterlimit:10;" d="M 142.073232 48.747679 L 142.073232 436.828591 " transform="matrix(0.998,0,0,-0.998,0,448.57205)"/>
</g>
<path style="fill:none;stroke-width:0.8;stroke-linecap:butt;stroke-linejoin:round;stroke:rgb(0%,0%,0%);stroke-opacity:1;stroke-miterlimit:10;" d="M 142.073232 48.747679 L 142.073232 45.248492 " transform="matrix(0.998,0,0,-0.998,0,448.57205)"/>
<g style="fill:rgb(0%,0%,0%);fill-opacity:1;">
  <use xlink:href="#glyph0-0" x="132.901268" y="417.528018"/>
  <use xlink:href="#glyph0-1" x="141.787458" y="417.528018"/>
</g>
<g clip-path="url(#clip4)" clip-rule="nonzero">
<path style="fill:none;stroke-width:0.8;stroke-linecap:square;stroke-linejoin:round;stroke:rgb(100%,100%,100%);stroke-opacity:0.8;stroke-miterlimit:10;" d="M 195.711768 48.747679 L 195.711768 436.828591 " transform="matrix(0.998,0,0,-0.998,0,448.57205)"/>
</g>
<path style="fill:none;stroke-width:0.8;stroke-linecap:butt;stroke-linejoin:round;stroke:rgb(0%,0%,0%);stroke-opacity:1;stroke-miterlimit:10;" d="M 195.711768 48.747679 L 195.711768 45.248492 " transform="matrix(0.998,0,0,-0.998,0,448.57205)"/>
<g style="fill:rgb(0%,0%,0%);fill-opacity:1;">
  <use xlink:href="#glyph0-0" x="181.986767" y="417.528018"/>
  <use xlink:href="#glyph0-1" x="190.872958" y="417.528018"/>
  <use xlink:href="#glyph0-1" x="199.759148" y="417.528018"/>
</g>
<g clip-path="url(#clip5)" clip-rule="nonzero">
<path style="fill:none;stroke-width:0.8;stroke-linecap:square;stroke-linejoin:round;stroke:rgb(100%,100%,100%);stroke-opacity:0.8;stroke-miterlimit:10;" d="M 249.34639 48.747679 L 249.34639 436.828591 " transform="matrix(0.998,0,0,-0.998,0,448.57205)"/>
</g>
<path style="fill:none;stroke-width:0.8;stroke-linecap:butt;stroke-linejoin:round;stroke:rgb(0%,0%,0%);stroke-opacity:1;stroke-miterlimit:10;" d="M 249.34639 48.747679 L 249.34639 45.248492 " transform="matrix(0.998,0,0,-0.998,0,448.57205)"/>
<g style="fill:rgb(0%,0%,0%);fill-opacity:1;">
  <use xlink:href="#glyph0-0" x="240.358343" y="417.528018"/>
  <use xlink:href="#glyph0-2" x="249.244533" y="417.528018"/>
</g>
<g clip-path="url(#clip6)" clip-rule="nonzero">
<path style="fill:none;stroke-width:0.8;stroke-linecap:square;stroke-linejoin:round;stroke:rgb(100%,100%,100%);stroke-opacity:0.8;stroke-miterlimit:10;" d="M 302.984926 48.747679 L 302.984926 436.828591 " transform="matrix(0.998,0,0,-0.998,0,448.57205)"/>
</g>
<path style="fill:none;stroke-width:0.8;stroke-linecap:butt;stroke-linejoin:round;stroke:rgb(0%,0%,0%);stroke-opacity:1;stroke-miterlimit:10;" d="M 302.984926 48.747679 L 302.984926 45.248492 " transform="matrix(0.998,0,0,-0.998,0,448.57205)"/>
<g style="fill:rgb(0%,0%,0%);fill-opacity:1;">
  <use xlink:href="#glyph0-0" x="289.443842" y="417.528018"/>
  <use xlink:href="#glyph0-1" x="298.330033" y="417.528018"/>
  <use xlink:href="#glyph0-2" x="307.216223" y="417.528018"/>
</g>
<g clip-path="url(#clip7)" clip-rule="nonzero">
<path style="fill:none;stroke-width:0.8;stroke-linecap:square;stroke-linejoin:round;stroke:rgb(100%,100%,100%);stroke-opacity:0.8;stroke-miterlimit:10;" d="M 356.623462 48.747679 L 356.623462 436.828591 " transform="matrix(0.998,0,0,-0.998,0,448.57205)"/>
</g>
<path style="fill:none;stroke-width:0.8;stroke-linecap:butt;stroke-linejoin:round;stroke:rgb(0%,0%,0%);stroke-opacity:1;stroke-miterlimit:10;" d="M 356.623462 48.747679 L 356.623462 45.248492 " transform="matrix(0.998,0,0,-0.998,0,448.57205)"/>
<g style="fill:rgb(0%,0%,0%);fill-opacity:1;">
  <use xlink:href="#glyph0-0" x="338.529341" y="417.528018"/>
  <use xlink:href="#glyph0-1" x="347.415532" y="417.528018"/>
  <use xlink:href="#glyph0-1" x="356.301722" y="417.528018"/>
  <use xlink:href="#glyph0-2" x="365.187913" y="417.528018"/>
</g>
<path style="fill:none;stroke-width:0.6;stroke-linecap:butt;stroke-linejoin:round;stroke:rgb(0%,0%,0%);stroke-opacity:1;stroke-miterlimit:10;" d="M 80.129021 48.747679 L 80.129021 46.747584 " transform="matrix(0.998,0,0,-0.998,0,448.57205)"/>
<path style="fill:none;stroke-width:0.6;stroke-linecap:butt;stroke-linejoin:round;stroke:rgb(0%,0%,0%);stroke-opacity:1;stroke-miterlimit:10;" d="M 83.240714 48.747679 L 83.240714 46.747584 " transform="matrix(0.998,0,0,-0.998,0,448.57205)"/>
<path style="fill:none;stroke-width:0.6;stroke-linecap:butt;stroke-linejoin:round;stroke:rgb(0%,0%,0%);stroke-opacity:1;stroke-miterlimit:10;" d="M 85.984483 48.747679 L 85.984483 46.747584 " transform="matrix(0.998,0,0,-0.998,0,448.57205)"/>
<path style="fill:none;stroke-width:0.6;stroke-linecap:butt;stroke-linejoin:round;stroke:rgb(0%,0%,0%);stroke-opacity:1;stroke-miterlimit:10;" d="M 104.584185 48.747679 L 104.584185 46.747584 " transform="matrix(0.998,0,0,-0.998,0,448.57205)"/>
<path style="fill:none;stroke-width:0.6;stroke-linecap:butt;stroke-linejoin:round;stroke:rgb(0%,0%,0%);stroke-opacity:1;stroke-miterlimit:10;" d="M 114.028858 48.747679 L 114.028858 46.747584 " transform="matrix(0.998,0,0,-0.998,0,448.57205)"/>
<path style="fill:none;stroke-width:0.6;stroke-linecap:butt;stroke-linejoin:round;stroke:rgb(0%,0%,0%);stroke-opacity:1;stroke-miterlimit:10;" d="M 120.729761 48.747679 L 120.729761 46.747584 " transform="matrix(0.998,0,0,-0.998,0,448.57205)"/>
<path style="fill:none;stroke-width:0.6;stroke-linecap:butt;stroke-linejoin:round;stroke:rgb(0%,0%,0%);stroke-opacity:1;stroke-miterlimit:10;" d="M 125.927657 48.747679 L 125.927657 46.747584 " transform="matrix(0.998,0,0,-0.998,0,448.57205)"/>
<path style="fill:none;stroke-width:0.6;stroke-linecap:butt;stroke-linejoin:round;stroke:rgb(0%,0%,0%);stroke-opacity:1;stroke-miterlimit:10;" d="M 130.174433 48.747679 L 130.174433 46.747584 " transform="matrix(0.998,0,0,-0.998,0,448.57205)"/>
<path style="fill:none;stroke-width:0.6;stroke-linecap:butt;stroke-linejoin:round;stroke:rgb(0%,0%,0%);stroke-opacity:1;stroke-miterlimit:10;" d="M 133.763643 48.747679 L 133.763643 46.747584 " transform="matrix(0.998,0,0,-0.998,0,448.57205)"/>
<path style="fill:none;stroke-width:0.6;stroke-linecap:butt;stroke-linejoin:round;stroke:rgb(0%,0%,0%);stroke-opacity:1;stroke-miterlimit:10;" d="M 136.875336 48.747679 L 136.875336 46.747584 " transform="matrix(0.998,0,0,-0.998,0,448.57205)"/>
<path style="fill:none;stroke-width:0.6;stroke-linecap:butt;stroke-linejoin:round;stroke:rgb(0%,0%,0%);stroke-opacity:1;stroke-miterlimit:10;" d="M 139.619105 48.747679 L 139.619105 46.747584 " transform="matrix(0.998,0,0,-0.998,0,448.57205)"/>
<path style="fill:none;stroke-width:0.6;stroke-linecap:butt;stroke-linejoin:round;stroke:rgb(0%,0%,0%);stroke-opacity:1;stroke-miterlimit:10;" d="M 158.218807 48.747679 L 158.218807 46.747584 " transform="matrix(0.998,0,0,-0.998,0,448.57205)"/>
<path style="fill:none;stroke-width:0.6;stroke-linecap:butt;stroke-linejoin:round;stroke:rgb(0%,0%,0%);stroke-opacity:1;stroke-miterlimit:10;" d="M 167.663479 48.747679 L 167.663479 46.747584 " transform="matrix(0.998,0,0,-0.998,0,448.57205)"/>
<path style="fill:none;stroke-width:0.6;stroke-linecap:butt;stroke-linejoin:round;stroke:rgb(0%,0%,0%);stroke-opacity:1;stroke-miterlimit:10;" d="M 174.368296 48.747679 L 174.368296 46.747584 " transform="matrix(0.998,0,0,-0.998,0,448.57205)"/>
<path style="fill:none;stroke-width:0.6;stroke-linecap:butt;stroke-linejoin:round;stroke:rgb(0%,0%,0%);stroke-opacity:1;stroke-miterlimit:10;" d="M 179.566193 48.747679 L 179.566193 46.747584 " transform="matrix(0.998,0,0,-0.998,0,448.57205)"/>
<path style="fill:none;stroke-width:0.6;stroke-linecap:butt;stroke-linejoin:round;stroke:rgb(0%,0%,0%);stroke-opacity:1;stroke-miterlimit:10;" d="M 183.812969 48.747679 L 183.812969 46.747584 " transform="matrix(0.998,0,0,-0.998,0,448.57205)"/>
<path style="fill:none;stroke-width:0.6;stroke-linecap:butt;stroke-linejoin:round;stroke:rgb(0%,0%,0%);stroke-opacity:1;stroke-miterlimit:10;" d="M 187.402179 48.747679 L 187.402179 46.747584 " transform="matrix(0.998,0,0,-0.998,0,448.57205)"/>
<path style="fill:none;stroke-width:0.6;stroke-linecap:butt;stroke-linejoin:round;stroke:rgb(0%,0%,0%);stroke-opacity:1;stroke-miterlimit:10;" d="M 190.513871 48.747679 L 190.513871 46.747584 " transform="matrix(0.998,0,0,-0.998,0,448.57205)"/>
<path style="fill:none;stroke-width:0.6;stroke-linecap:butt;stroke-linejoin:round;stroke:rgb(0%,0%,0%);stroke-opacity:1;stroke-miterlimit:10;" d="M 193.257641 48.747679 L 193.257641 46.747584 " transform="matrix(0.998,0,0,-0.998,0,448.57205)"/>
<path style="fill:none;stroke-width:0.6;stroke-linecap:butt;stroke-linejoin:round;stroke:rgb(0%,0%,0%);stroke-opacity:1;stroke-miterlimit:10;" d="M 211.857343 48.747679 L 211.857343 46.747584 " transform="matrix(0.998,0,0,-0.998,0,448.57205)"/>
<path style="fill:none;stroke-width:0.6;stroke-linecap:butt;stroke-linejoin:round;stroke:rgb(0%,0%,0%);stroke-opacity:1;stroke-miterlimit:10;" d="M 221.302015 48.747679 L 221.302015 46.747584 " transform="matrix(0.998,0,0,-0.998,0,448.57205)"/>
<path style="fill:none;stroke-width:0.6;stroke-linecap:butt;stroke-linejoin:round;stroke:rgb(0%,0%,0%);stroke-opacity:1;stroke-miterlimit:10;" d="M 228.002918 48.747679 L 228.002918 46.747584 " transform="matrix(0.998,0,0,-0.998,0,448.57205)"/>
<path style="fill:none;stroke-width:0.6;stroke-linecap:butt;stroke-linejoin:round;stroke:rgb(0%,0%,0%);stroke-opacity:1;stroke-miterlimit:10;" d="M 233.200815 48.747679 L 233.200815 46.747584 " transform="matrix(0.998,0,0,-0.998,0,448.57205)"/>
<path style="fill:none;stroke-width:0.6;stroke-linecap:butt;stroke-linejoin:round;stroke:rgb(0%,0%,0%);stroke-opacity:1;stroke-miterlimit:10;" d="M 237.44759 48.747679 L 237.44759 46.747584 " transform="matrix(0.998,0,0,-0.998,0,448.57205)"/>
<path style="fill:none;stroke-width:0.6;stroke-linecap:butt;stroke-linejoin:round;stroke:rgb(0%,0%,0%);stroke-opacity:1;stroke-miterlimit:10;" d="M 241.040715 48.747679 L 241.040715 46.747584 " transform="matrix(0.998,0,0,-0.998,0,448.57205)"/>
<path style="fill:none;stroke-width:0.6;stroke-linecap:butt;stroke-linejoin:round;stroke:rgb(0%,0%,0%);stroke-opacity:1;stroke-miterlimit:10;" d="M 244.148493 48.747679 L 244.148493 46.747584 " transform="matrix(0.998,0,0,-0.998,0,448.57205)"/>
<path style="fill:none;stroke-width:0.6;stroke-linecap:butt;stroke-linejoin:round;stroke:rgb(0%,0%,0%);stroke-opacity:1;stroke-miterlimit:10;" d="M 246.892262 48.747679 L 246.892262 46.747584 " transform="matrix(0.998,0,0,-0.998,0,448.57205)"/>
<path style="fill:none;stroke-width:0.6;stroke-linecap:butt;stroke-linejoin:round;stroke:rgb(0%,0%,0%);stroke-opacity:1;stroke-miterlimit:10;" d="M 265.495879 48.747679 L 265.495879 46.747584 " transform="matrix(0.998,0,0,-0.998,0,448.57205)"/>
<path style="fill:none;stroke-width:0.6;stroke-linecap:butt;stroke-linejoin:round;stroke:rgb(0%,0%,0%);stroke-opacity:1;stroke-miterlimit:10;" d="M 274.940551 48.747679 L 274.940551 46.747584 " transform="matrix(0.998,0,0,-0.998,0,448.57205)"/>
<path style="fill:none;stroke-width:0.6;stroke-linecap:butt;stroke-linejoin:round;stroke:rgb(0%,0%,0%);stroke-opacity:1;stroke-miterlimit:10;" d="M 281.641454 48.747679 L 281.641454 46.747584 " transform="matrix(0.998,0,0,-0.998,0,448.57205)"/>
<path style="fill:none;stroke-width:0.6;stroke-linecap:butt;stroke-linejoin:round;stroke:rgb(0%,0%,0%);stroke-opacity:1;stroke-miterlimit:10;" d="M 286.839351 48.747679 L 286.839351 46.747584 " transform="matrix(0.998,0,0,-0.998,0,448.57205)"/>
<path style="fill:none;stroke-width:0.6;stroke-linecap:butt;stroke-linejoin:round;stroke:rgb(0%,0%,0%);stroke-opacity:1;stroke-miterlimit:10;" d="M 291.086126 48.747679 L 291.086126 46.747584 " transform="matrix(0.998,0,0,-0.998,0,448.57205)"/>
<path style="fill:none;stroke-width:0.6;stroke-linecap:butt;stroke-linejoin:round;stroke:rgb(0%,0%,0%);stroke-opacity:1;stroke-miterlimit:10;" d="M 294.675336 48.747679 L 294.675336 46.747584 " transform="matrix(0.998,0,0,-0.998,0,448.57205)"/>
<path style="fill:none;stroke-width:0.6;stroke-linecap:butt;stroke-linejoin:round;stroke:rgb(0%,0%,0%);stroke-opacity:1;stroke-miterlimit:10;" d="M 297.787029 48.747679 L 297.787029 46.747584 " transform="matrix(0.998,0,0,-0.998,0,448.57205)"/>
<path style="fill:none;stroke-width:0.6;stroke-linecap:butt;stroke-linejoin:round;stroke:rgb(0%,0%,0%);stroke-opacity:1;stroke-miterlimit:10;" d="M 300.530798 48.747679 L 300.530798 46.747584 " transform="matrix(0.998,0,0,-0.998,0,448.57205)"/>
<path style="fill:none;stroke-width:0.6;stroke-linecap:butt;stroke-linejoin:round;stroke:rgb(0%,0%,0%);stroke-opacity:1;stroke-miterlimit:10;" d="M 319.130501 48.747679 L 319.130501 46.747584 " transform="matrix(0.998,0,0,-0.998,0,448.57205)"/>
<path style="fill:none;stroke-width:0.6;stroke-linecap:butt;stroke-linejoin:round;stroke:rgb(0%,0%,0%);stroke-opacity:1;stroke-miterlimit:10;" d="M 328.575173 48.747679 L 328.575173 46.747584 " transform="matrix(0.998,0,0,-0.998,0,448.57205)"/>
<path style="fill:none;stroke-width:0.6;stroke-linecap:butt;stroke-linejoin:round;stroke:rgb(0%,0%,0%);stroke-opacity:1;stroke-miterlimit:10;" d="M 335.276076 48.747679 L 335.276076 46.747584 " transform="matrix(0.998,0,0,-0.998,0,448.57205)"/>
<path style="fill:none;stroke-width:0.6;stroke-linecap:butt;stroke-linejoin:round;stroke:rgb(0%,0%,0%);stroke-opacity:1;stroke-miterlimit:10;" d="M 340.473972 48.747679 L 340.473972 46.747584 " transform="matrix(0.998,0,0,-0.998,0,448.57205)"/>
<path style="fill:none;stroke-width:0.6;stroke-linecap:butt;stroke-linejoin:round;stroke:rgb(0%,0%,0%);stroke-opacity:1;stroke-miterlimit:10;" d="M 344.720748 48.747679 L 344.720748 46.747584 " transform="matrix(0.998,0,0,-0.998,0,448.57205)"/>
<path style="fill:none;stroke-width:0.6;stroke-linecap:butt;stroke-linejoin:round;stroke:rgb(0%,0%,0%);stroke-opacity:1;stroke-miterlimit:10;" d="M 348.313872 48.747679 L 348.313872 46.747584 " transform="matrix(0.998,0,0,-0.998,0,448.57205)"/>
<path style="fill:none;stroke-width:0.6;stroke-linecap:butt;stroke-linejoin:round;stroke:rgb(0%,0%,0%);stroke-opacity:1;stroke-miterlimit:10;" d="M 351.425565 48.747679 L 351.425565 46.747584 " transform="matrix(0.998,0,0,-0.998,0,448.57205)"/>
<path style="fill:none;stroke-width:0.6;stroke-linecap:butt;stroke-linejoin:round;stroke:rgb(0%,0%,0%);stroke-opacity:1;stroke-miterlimit:10;" d="M 354.169334 48.747679 L 354.169334 46.747584 " transform="matrix(0.998,0,0,-0.998,0,448.57205)"/>
<g style="fill:rgb(0%,0%,0%);fill-opacity:1;">
  <use xlink:href="#glyph1-0" x="161.797605" y="437.30089"/>
</g>
<g style="fill:rgb(0%,0%,0%);fill-opacity:1;">
  <use xlink:href="#glyph1-1" x="172.161112" y="437.30089"/>
</g>
<g style="fill:rgb(0%,0%,0%);fill-opacity:1;">
  <use xlink:href="#glyph1-2" x="182.599177" y="437.30089"/>
</g>
<g style="fill:rgb(0%,0%,0%);fill-opacity:1;">
  <use xlink:href="#glyph1-3" x="199.126112" y="437.30089"/>
</g>
<g style="fill:rgb(0%,0%,0%);fill-opacity:1;">
  <use xlink:href="#glyph1-4" x="209.895544" y="437.30089"/>
</g>
<g style="fill:rgb(0%,0%,0%);fill-opacity:1;">
  <use xlink:href="#glyph1-5" x="225.784543" y="437.30089"/>
</g>
<g style="fill:rgb(0%,0%,0%);fill-opacity:1;">
  <use xlink:href="#glyph1-6" x="232.403602" y="437.30089"/>
</g>
<g style="fill:rgb(0%,0%,0%);fill-opacity:1;">
  <use xlink:href="#glyph1-7" x="247.041745" y="437.30089"/>
</g>
<g style="fill:rgb(0%,0%,0%);fill-opacity:1;">
  <use xlink:href="#glyph1-8" x="257.082169" y="437.30089"/>
</g>
<g style="fill:rgb(0%,0%,0%);fill-opacity:1;">
  <use xlink:href="#glyph1-9" x="264.057447" y="437.30089"/>
</g>
<g clip-path="url(#clip8)" clip-rule="nonzero">
<path style="fill:none;stroke-width:0.8;stroke-linecap:square;stroke-linejoin:round;stroke:rgb(100%,100%,100%);stroke-opacity:0.8;stroke-miterlimit:10;" d="M 77.620097 84.569328 L 356.623462 84.569328 " transform="matrix(0.998,0,0,-0.998,0,448.57205)"/>
</g>
<path style="fill:none;stroke-width:0.8;stroke-linecap:butt;stroke-linejoin:round;stroke:rgb(0%,0%,0%);stroke-opacity:1;stroke-miterlimit:10;" d="M 77.620097 84.569328 L 74.12091 84.569328 " transform="matrix(0.998,0,0,-0.998,0,448.57205)"/>
<g style="fill:rgb(0%,0%,0%);fill-opacity:1;">
  <use xlink:href="#glyph0-0" x="34.131594" y="369.482793"/>
  <use xlink:href="#glyph0-1" x="43.017785" y="369.482793"/>
</g>
<g style="fill:rgb(0%,0%,0%);fill-opacity:1;">
  <use xlink:href="#glyph0-3" x="59.285284" y="369.482793"/>
</g>
<path style=" stroke:none;fill-rule:nonzero;fill:rgb(0%,0%,0%);fill-opacity:1;" d="M 52.847656 362.148438 L 58.351562 362.148438 L 58.351562 362.789062 L 52.847656 362.789062 Z M 52.847656 362.148438 "/>
<path style=" stroke:none;fill-rule:nonzero;fill:rgb(0%,0%,0%);fill-opacity:1;" d="M 68.140625 360.050781 L 66.03125 362.914062 L 68.140625 362.914062 Z M 67.988281 359.226562 L 69.121094 359.226562 L 69.121094 362.914062 L 70.042969 362.914062 L 70.042969 363.65625 L 69.121094 363.65625 L 69.121094 364.929688 L 68.140625 364.929688 L 68.140625 363.65625 L 65.320312 363.65625 L 65.320312 362.832031 Z M 67.988281 359.226562 "/>
<g clip-path="url(#clip9)" clip-rule="nonzero">
<path style="fill:none;stroke-width:0.8;stroke-linecap:square;stroke-linejoin:round;stroke:rgb(100%,100%,100%);stroke-opacity:0.8;stroke-miterlimit:10;" d="M 77.620097 143.276596 L 356.623462 143.276596 " transform="matrix(0.998,0,0,-0.998,0,448.57205)"/>
</g>
<path style="fill:none;stroke-width:0.8;stroke-linecap:butt;stroke-linejoin:round;stroke:rgb(0%,0%,0%);stroke-opacity:1;stroke-miterlimit:10;" d="M 77.620097 143.276596 L 74.12091 143.276596 " transform="matrix(0.998,0,0,-0.998,0,448.57205)"/>
<g style="fill:rgb(0%,0%,0%);fill-opacity:1;">
  <use xlink:href="#glyph0-0" x="34.131594" y="310.890423"/>
  <use xlink:href="#glyph0-1" x="43.017785" y="310.890423"/>
</g>
<g style="fill:rgb(0%,0%,0%);fill-opacity:1;">
  <use xlink:href="#glyph0-3" x="59.285284" y="310.890423"/>
  <use xlink:href="#glyph0-4" x="64.888055" y="310.890423"/>
</g>
<path style=" stroke:none;fill-rule:nonzero;fill:rgb(0%,0%,0%);fill-opacity:1;" d="M 52.847656 303.554688 L 58.351562 303.554688 L 58.351562 304.199219 L 52.847656 304.199219 Z M 52.847656 303.554688 "/>
<g clip-path="url(#clip10)" clip-rule="nonzero">
<path style="fill:none;stroke-width:0.8;stroke-linecap:square;stroke-linejoin:round;stroke:rgb(100%,100%,100%);stroke-opacity:0.8;stroke-miterlimit:10;" d="M 77.620097 201.987778 L 356.623462 201.987778 " transform="matrix(0.998,0,0,-0.998,0,448.57205)"/>
</g>
<path style="fill:none;stroke-width:0.8;stroke-linecap:butt;stroke-linejoin:round;stroke:rgb(0%,0%,0%);stroke-opacity:1;stroke-miterlimit:10;" d="M 77.620097 201.987778 L 74.12091 201.987778 " transform="matrix(0.998,0,0,-0.998,0,448.57205)"/>
<g style="fill:rgb(0%,0%,0%);fill-opacity:1;">
  <use xlink:href="#glyph0-0" x="34.131594" y="252.298053"/>
  <use xlink:href="#glyph0-1" x="43.017785" y="252.298053"/>
</g>
<g style="fill:rgb(0%,0%,0%);fill-opacity:1;">
  <use xlink:href="#glyph0-3" x="59.285284" y="252.298053"/>
</g>
<path style=" stroke:none;fill-rule:nonzero;fill:rgb(0%,0%,0%);fill-opacity:1;" d="M 52.847656 244.960938 L 58.351562 244.960938 L 58.351562 245.605469 L 52.847656 245.605469 Z M 52.847656 244.960938 "/>
<path style=" stroke:none;fill-rule:nonzero;fill:rgb(0%,0%,0%);fill-opacity:1;" d="M 68.769531 243.117188 C 68.546875 242.726562 68.199219 242.53125 67.738281 242.53125 C 67.277344 242.53125 66.941406 242.726562 66.714844 243.117188 C 66.480469 243.507812 66.367188 244.097656 66.367188 244.878906 C 66.367188 245.675781 66.480469 246.261719 66.714844 246.652344 C 66.941406 247.042969 67.277344 247.238281 67.738281 247.238281 C 68.199219 247.238281 68.546875 247.042969 68.769531 246.652344 C 68.992188 246.261719 69.121094 245.675781 69.121094 244.878906 C 69.121094 244.097656 68.992188 243.507812 68.769531 243.117188 Z M 67.75 241.929688 C 68.476562 241.929688 69.023438 242.183594 69.414062 242.683594 C 69.804688 243.1875 70 243.929688 70 244.878906 C 70 245.855469 69.804688 246.582031 69.414062 247.085938 C 69.023438 247.589844 68.476562 247.839844 67.75 247.839844 C 66.996094 247.839844 66.4375 247.589844 66.046875 247.085938 C 65.65625 246.582031 65.472656 245.855469 65.472656 244.878906 C 65.472656 243.929688 65.65625 243.1875 66.046875 242.683594 C 66.4375 242.183594 66.996094 241.929688 67.75 241.929688 Z M 67.75 241.929688 "/>
<g clip-path="url(#clip11)" clip-rule="nonzero">
<path style="fill:none;stroke-width:0.8;stroke-linecap:square;stroke-linejoin:round;stroke:rgb(100%,100%,100%);stroke-opacity:0.8;stroke-miterlimit:10;" d="M 77.620097 260.698959 L 356.623462 260.698959 " transform="matrix(0.998,0,0,-0.998,0,448.57205)"/>
</g>
<path style="fill:none;stroke-width:0.8;stroke-linecap:butt;stroke-linejoin:round;stroke:rgb(0%,0%,0%);stroke-opacity:1;stroke-miterlimit:10;" d="M 77.620097 260.698959 L 74.12091 260.698959 " transform="matrix(0.998,0,0,-0.998,0,448.57205)"/>
<g style="fill:rgb(0%,0%,0%);fill-opacity:1;">
  <use xlink:href="#glyph0-0" x="39.72975" y="193.705682"/>
  <use xlink:href="#glyph0-1" x="48.61594" y="193.705682"/>
</g>
<path style=" stroke:none;fill-rule:nonzero;fill:rgb(0%,0%,0%);fill-opacity:1;" d="M 58.445312 186.371094 L 63.949219 186.371094 L 63.949219 187.011719 L 58.445312 187.011719 Z M 58.445312 186.371094 "/>
<path style=" stroke:none;fill-rule:nonzero;fill:rgb(0%,0%,0%);fill-opacity:1;" d="M 68.738281 186.734375 C 68.488281 186.539062 68.152344 186.425781 67.734375 186.425781 C 67.316406 186.425781 66.980469 186.539062 66.742188 186.734375 C 66.488281 186.929688 66.378906 187.207031 66.378906 187.542969 C 66.378906 187.894531 66.488281 188.160156 66.742188 188.355469 C 66.980469 188.550781 67.316406 188.648438 67.746094 188.648438 C 68.167969 188.648438 68.488281 188.550781 68.738281 188.339844 C 68.976562 188.144531 69.101562 187.878906 69.101562 187.542969 C 69.101562 187.207031 68.976562 186.929688 68.738281 186.734375 Z M 66.851562 186.105469 C 66.460938 186.019531 66.167969 185.867188 65.972656 185.644531 C 65.75 185.421875 65.652344 185.140625 65.652344 184.804688 C 65.652344 184.359375 65.832031 183.996094 66.210938 183.730469 C 66.574219 183.476562 67.089844 183.339844 67.734375 183.339844 C 68.375 183.339844 68.894531 183.476562 69.269531 183.730469 C 69.632812 183.996094 69.828125 184.359375 69.828125 184.804688 C 69.828125 185.140625 69.71875 185.421875 69.523438 185.644531 C 69.296875 185.867188 69.003906 186.019531 68.628906 186.105469 C 69.03125 186.1875 69.367188 186.355469 69.621094 186.621094 C 69.859375 186.875 69.984375 187.179688 69.984375 187.542969 C 69.984375 188.101562 69.789062 188.523438 69.410156 188.800781 C 69.019531 189.109375 68.460938 189.25 67.746094 189.25 C 67.019531 189.25 66.460938 189.109375 66.070312 188.800781 C 65.679688 188.523438 65.484375 188.101562 65.484375 187.542969 C 65.484375 187.195312 65.597656 186.886719 65.847656 186.621094 C 66.097656 186.371094 66.433594 186.1875 66.851562 186.105469 Z M 66.53125 184.890625 C 66.53125 185.167969 66.628906 185.40625 66.851562 185.574219 C 67.050781 185.742188 67.355469 185.824219 67.746094 185.824219 C 68.109375 185.824219 68.40625 185.742188 68.628906 185.574219 C 68.851562 185.40625 68.964844 185.183594 68.964844 184.890625 C 68.964844 184.609375 68.851562 184.371094 68.628906 184.191406 C 68.40625 184.023438 68.109375 183.9375 67.734375 183.9375 C 67.355469 183.9375 67.0625 184.023438 66.851562 184.191406 C 66.628906 184.359375 66.53125 184.597656 66.53125 184.890625 Z M 66.53125 184.890625 "/>
<g clip-path="url(#clip12)" clip-rule="nonzero">
<path style="fill:none;stroke-width:0.8;stroke-linecap:square;stroke-linejoin:round;stroke:rgb(100%,100%,100%);stroke-opacity:0.8;stroke-miterlimit:10;" d="M 77.620097 319.406227 L 356.623462 319.406227 " transform="matrix(0.998,0,0,-0.998,0,448.57205)"/>
</g>
<path style="fill:none;stroke-width:0.8;stroke-linecap:butt;stroke-linejoin:round;stroke:rgb(0%,0%,0%);stroke-opacity:1;stroke-miterlimit:10;" d="M 77.620097 319.406227 L 74.12091 319.406227 " transform="matrix(0.998,0,0,-0.998,0,448.57205)"/>
<g style="fill:rgb(0%,0%,0%);fill-opacity:1;">
  <use xlink:href="#glyph0-0" x="39.72975" y="135.113312"/>
  <use xlink:href="#glyph0-1" x="48.61594" y="135.113312"/>
</g>
<path style=" stroke:none;fill-rule:nonzero;fill:rgb(0%,0%,0%);fill-opacity:1;" d="M 58.445312 127.777344 L 63.949219 127.777344 L 63.949219 128.421875 L 58.445312 128.421875 Z M 58.445312 127.777344 "/>
<path style=" stroke:none;fill-rule:nonzero;fill:rgb(0%,0%,0%);fill-opacity:1;" d="M 67.84375 127.386719 C 67.441406 127.386719 67.132812 127.511719 66.910156 127.734375 C 66.671875 127.988281 66.558594 128.308594 66.558594 128.714844 C 66.558594 129.132812 66.671875 129.453125 66.910156 129.691406 C 67.132812 129.945312 67.441406 130.054688 67.84375 130.054688 C 68.238281 130.054688 68.558594 129.945312 68.796875 129.691406 C 69.019531 129.453125 69.144531 129.132812 69.144531 128.714844 C 69.144531 128.308594 69.019531 127.988281 68.796875 127.734375 C 68.558594 127.511719 68.238281 127.386719 67.84375 127.386719 Z M 69.605469 124.96875 L 69.605469 125.667969 C 69.382812 125.585938 69.160156 125.515625 68.933594 125.457031 C 68.710938 125.417969 68.488281 125.390625 68.265625 125.390625 C 67.679688 125.390625 67.230469 125.570312 66.921875 125.90625 C 66.617188 126.253906 66.433594 126.773438 66.390625 127.46875 C 66.558594 127.246094 66.769531 127.078125 67.035156 126.953125 C 67.300781 126.84375 67.59375 126.773438 67.902344 126.773438 C 68.558594 126.773438 69.074219 126.953125 69.464844 127.289062 C 69.84375 127.652344 70.039062 128.128906 70.039062 128.714844 C 70.039062 129.300781 69.828125 129.761719 69.4375 130.125 C 69.03125 130.488281 68.503906 130.65625 67.84375 130.65625 C 67.089844 130.65625 66.503906 130.40625 66.113281 129.902344 C 65.707031 129.398438 65.511719 128.671875 65.511719 127.695312 C 65.511719 126.800781 65.75 126.085938 66.238281 125.554688 C 66.726562 125.027344 67.382812 124.746094 68.222656 124.746094 C 68.445312 124.746094 68.667969 124.773438 68.90625 124.800781 C 69.132812 124.84375 69.355469 124.898438 69.605469 124.96875 Z M 69.605469 124.96875 "/>
<g clip-path="url(#clip13)" clip-rule="nonzero">
<path style="fill:none;stroke-width:0.8;stroke-linecap:square;stroke-linejoin:round;stroke:rgb(100%,100%,100%);stroke-opacity:0.8;stroke-miterlimit:10;" d="M 77.620097 378.117409 L 356.623462 378.117409 " transform="matrix(0.998,0,0,-0.998,0,448.57205)"/>
</g>
<path style="fill:none;stroke-width:0.8;stroke-linecap:butt;stroke-linejoin:round;stroke:rgb(0%,0%,0%);stroke-opacity:1;stroke-miterlimit:10;" d="M 77.620097 378.117409 L 74.12091 378.117409 " transform="matrix(0.998,0,0,-0.998,0,448.57205)"/>
<g style="fill:rgb(0%,0%,0%);fill-opacity:1;">
  <use xlink:href="#glyph0-0" x="39.72975" y="76.520942"/>
  <use xlink:href="#glyph0-1" x="48.61594" y="76.520942"/>
</g>
<path style=" stroke:none;fill-rule:nonzero;fill:rgb(0%,0%,0%);fill-opacity:1;" d="M 58.445312 69.1875 L 63.949219 69.1875 L 63.949219 69.828125 L 58.445312 69.828125 Z M 58.445312 69.1875 "/>
<path style=" stroke:none;fill-rule:nonzero;fill:rgb(0%,0%,0%);fill-opacity:1;" d="M 68.140625 67.089844 L 66.027344 69.953125 L 68.140625 69.953125 Z M 67.984375 66.265625 L 69.117188 66.265625 L 69.117188 69.953125 L 70.039062 69.953125 L 70.039062 70.695312 L 69.117188 70.695312 L 69.117188 71.964844 L 68.140625 71.964844 L 68.140625 70.695312 L 65.316406 70.695312 L 65.316406 69.871094 Z M 67.984375 66.265625 "/>
<g clip-path="url(#clip14)" clip-rule="nonzero">
<path style="fill:none;stroke-width:0.8;stroke-linecap:square;stroke-linejoin:round;stroke:rgb(100%,100%,100%);stroke-opacity:0.8;stroke-miterlimit:10;" d="M 77.620097 436.828591 L 356.623462 436.828591 " transform="matrix(0.998,0,0,-0.998,0,448.57205)"/>
</g>
<path style="fill:none;stroke-width:0.8;stroke-linecap:butt;stroke-linejoin:round;stroke:rgb(0%,0%,0%);stroke-opacity:1;stroke-miterlimit:10;" d="M 77.620097 436.828591 L 74.12091 436.828591 " transform="matrix(0.998,0,0,-0.998,0,448.57205)"/>
<g style="fill:rgb(0%,0%,0%);fill-opacity:1;">
  <use xlink:href="#glyph0-0" x="39.72975" y="17.928571"/>
  <use xlink:href="#glyph0-1" x="48.61594" y="17.928571"/>
</g>
<g style="fill:rgb(0%,0%,0%);fill-opacity:1;">
  <use xlink:href="#glyph0-4" x="64.883439" y="17.928571"/>
</g>
<path style=" stroke:none;fill-rule:nonzero;fill:rgb(0%,0%,0%);fill-opacity:1;" d="M 58.445312 10.59375 L 63.949219 10.59375 L 63.949219 11.234375 L 58.445312 11.234375 Z M 58.445312 10.59375 "/>
<g style="fill:rgb(0%,0%,0%);fill-opacity:1;">
  <use xlink:href="#glyph2-0" x="25.071627" y="252.677781"/>
</g>
<g style="fill:rgb(0%,0%,0%);fill-opacity:1;">
  <use xlink:href="#glyph3-0" x="25.071627" y="246.961698"/>
</g>
<g style="fill:rgb(0%,0%,0%);fill-opacity:1;">
  <use xlink:href="#glyph2-0" x="25.071627" y="232.323555"/>
</g>
<g style="fill:rgb(0%,0%,0%);fill-opacity:1;">
  <use xlink:href="#glyph2-1" x="25.071627" y="221.098548"/>
</g>
<g style="fill:rgb(0%,0%,0%);fill-opacity:1;">
  <use xlink:href="#glyph3-0" x="25.071627" y="214.47949"/>
</g>
<g style="fill:rgb(0%,0%,0%);fill-opacity:1;">
  <use xlink:href="#glyph2-2" x="25.071627" y="189.426478"/>
</g>
<g style="fill:rgb(0%,0%,0%);fill-opacity:1;">
  <use xlink:href="#glyph2-3" x="25.071627" y="183.710395"/>
</g>
<g style="fill:rgb(0%,0%,0%);fill-opacity:1;">
  <use xlink:href="#glyph2-4" x="25.071627" y="173.669971"/>
</g>
<g style="fill:rgb(0%,0%,0%);fill-opacity:1;">
  <use xlink:href="#glyph2-5" x="25.071627" y="166.694692"/>
</g>
<path style=" stroke:none;fill-rule:nonzero;fill:rgb(0%,0%,0%);fill-opacity:1;" d="M 7.1875 238.296875 L 7.1875 236.769531 L 9.121094 236.769531 L 9.121094 238.296875 Z M 10.582031 237.515625 Z M 10.582031 237.515625 "/>
<path style=" stroke:none;fill-rule:nonzero;fill:rgb(0%,0%,0%);fill-opacity:1;" d="M 23.402344 195.484375 L 23.402344 194.246094 L 24.875 194.246094 L 24.875 195.484375 Z M 21.324219 193.703125 C 21.179688 194.070312 21.097656 194.460938 21.097656 194.863281 C 21.097656 195.28125 21.179688 195.671875 21.324219 196.027344 C 21.476562 196.386719 21.703125 196.71875 21.988281 197.003906 C 22.285156 197.300781 22.605469 197.527344 22.960938 197.667969 C 23.320312 197.808594 23.710938 197.882812 24.136719 197.882812 C 24.542969 197.882812 24.921875 197.808594 25.277344 197.667969 C 25.632812 197.527344 25.964844 197.300781 26.265625 197.003906 C 26.5625 196.71875 26.785156 196.386719 26.929688 196.027344 C 27.082031 195.671875 27.15625 195.28125 27.15625 194.863281 C 27.15625 194.460938 27.082031 194.070312 26.929688 193.703125 C 26.785156 193.34375 26.5625 193.023438 26.265625 192.726562 C 25.964844 192.441406 25.632812 192.21875 25.277344 192.074219 C 24.921875 191.933594 24.542969 191.847656 24.136719 191.847656 C 23.710938 191.847656 23.320312 191.933594 22.960938 192.074219 C 22.605469 192.21875 22.285156 192.441406 21.988281 192.726562 C 21.703125 193.023438 21.476562 193.34375 21.324219 193.703125 Z M 20.515625 196.363281 C 20.324219 195.898438 20.21875 195.398438 20.21875 194.863281 C 20.21875 194.34375 20.324219 193.84375 20.515625 193.378906 C 20.707031 192.917969 20.992188 192.5 21.371094 192.121094 C 21.75 191.742188 22.179688 191.445312 22.628906 191.253906 C 23.09375 191.066406 23.589844 190.96875 24.136719 190.96875 C 24.660156 190.96875 25.160156 191.066406 25.609375 191.253906 C 26.074219 191.445312 26.488281 191.730469 26.871094 192.109375 C 27.25 192.488281 27.535156 192.917969 27.722656 193.378906 C 27.914062 193.84375 28.007812 194.34375 28.007812 194.863281 C 28.007812 195.398438 27.914062 195.898438 27.722656 196.363281 C 27.535156 196.824219 27.25 197.242188 26.871094 197.609375 C 26.488281 198 26.074219 198.285156 25.609375 198.476562 C 25.160156 198.664062 24.660156 198.761719 24.136719 198.761719 C 23.589844 198.761719 23.09375 198.664062 22.628906 198.476562 C 22.179688 198.285156 21.75 198 21.371094 197.609375 C 20.992188 197.242188 20.707031 196.824219 20.515625 196.363281 Z M 20.515625 196.363281 "/>
<path style="fill:none;stroke-width:3;stroke-linecap:square;stroke-linejoin:round;stroke:rgb(12.156677%,46.665955%,70.587158%);stroke-opacity:0.8;stroke-miterlimit:10;" d="M 89.03355 122.109257 L 106.533397 111.588214 L 114.705993 106.848264 L 121.739593 103.028123 L 126.452144 100.679676 L 131.188179 98.562159 L 134.753905 97.176575 L 138.331373 96.014094 L 141.912755 95.145169 L 144.288601 94.769417 L 146.64879 94.589369 L 148.977667 94.62851 L 151.259575 94.902496 L 153.482772 95.423068 L 155.627687 96.190228 L 157.694321 97.211802 L 159.674845 98.468221 L 161.581001 99.936001 L 165.358087 103.051608 L 166.42663 103.435187 L 167.57737 103.047694 L 168.661569 101.842157 L 170.720375 99.086646 L 171.839801 98.108126 L 173.014025 97.485788 L 174.223475 97.149177 L 176.160944 96.945645 L 179.781467 96.969129 L 205.089901 97.528843 L 244.101524 98.323401 L 254.967007 98.816574 L 261.45655 99.290178 L 267.918694 99.98297 L 272.940457 100.714903 L 277.966134 101.685594 L 282.25205 102.761966 L 286.025222 103.971416 L 288.659397 105.012561 L 291.465792 106.366832 L 293.837724 107.764159 L 295.982639 109.271079 L 297.861397 110.911078 L 299.278293 112.461053 L 300.601252 114.253701 L 302.037719 116.606063 L 302.996668 118.790119 L 304.260915 122.007491 L 304.448791 123.43613 L 304.730605 127.890352 L 305.125927 138.407482 L 305.458623 153.629334 L 305.783492 182.284305 L 305.885258 226.055448 L 305.904828 267.677762 L 305.904828 180.988745 L 305.955711 182.292133 L 306.041821 181.583685 L 306.06922 181.845928 L 306.120103 185.470365 L 306.159244 235.104798 L 306.167072 361.43952 L 306.170986 65.828718 " transform="matrix(0.998,0,0,-0.998,0,448.57205)"/>
<path style="fill:none;stroke-width:3;stroke-linecap:square;stroke-linejoin:round;stroke:rgb(100%,49.803162%,5.490112%);stroke-opacity:0.8;stroke-miterlimit:10;" d="M 88.50515 173.708558 L 90.493502 173.653761 L 114.326328 173.775098 L 130.221402 174.127365 L 142.08106 174.620539 L 151.353513 175.242877 L 157.956564 175.876958 L 163.890307 176.648031 L 168.512834 177.446503 L 172.458226 178.307601 L 175.746052 179.196097 L 179.022136 180.276382 L 182.274736 181.62674 L 184.846285 182.984925 L 186.740699 184.210032 L 188.858216 185.846117 L 190.545184 187.450889 L 191.950338 189.090888 L 193.202844 190.891364 L 194.529716 193.216327 L 195.613916 195.153796 L 195.645229 195.130311 L 195.668713 195.110741 L 195.68437 195.232078 L 195.70394 194.507973 L 195.715682 198.598185 L 195.907472 238.744892 L 196.024894 237.304511 L 196.263653 233.867949 L 196.940789 220.771442 L 197.077782 220.219557 L 197.175634 220.438745 L 197.312626 222.470152 L 197.379166 223.573922 L 197.433963 222.712825 L 197.567041 221.2881 L 197.934965 222.712825 L 198.310716 224.521129 L 198.616015 227.268812 L 198.659069 226.975257 L 198.756921 225.66404 L 198.815633 225.253062 L 198.850859 225.495735 L 198.901742 229.073203 L 199.097446 407.473 L 199.097446 281.451405 L 199.10136 113.443487 " transform="matrix(0.998,0,0,-0.998,0,448.57205)"/>
<path style="fill:none;stroke-width:3;stroke-linecap:square;stroke-linejoin:round;stroke:rgb(17.254639%,62.744141%,17.254639%);stroke-opacity:0.8;stroke-miterlimit:10;" d="M 88.755651 288.888155 L 94.634597 289.506579 L 100.509629 290.33245 L 105.648815 291.275743 L 110.780172 292.465623 L 115.156112 293.714214 L 118.776635 294.927579 L 127.481546 297.968818 L 128.706653 298.105811 L 129.673431 297.992302 L 130.417106 297.690918 L 131.082499 297.182088 L 131.775291 296.332733 L 132.562021 294.911922 L 133.086507 294.015598 L 133.188273 293.992114 L 133.348751 294.348295 L 133.462259 295.749535 L 133.528798 300.747814 L 133.560111 332.16221 L 133.560111 298.775118 L 133.724502 325.907512 L 134.205934 324.584554 L 134.346841 329.383214 L 134.609084 339.019676 L 135.196196 348.679623 L 135.313618 351.579955 L 135.446697 352.758093 L 135.826362 355.447065 L 135.916386 356.096802 L 135.943785 359.0989 L 135.943785 359.05976 " transform="matrix(0.998,0,0,-0.998,0,448.57205)"/>
<path style="fill:none;stroke-width:0.8;stroke-linecap:square;stroke-linejoin:miter;stroke:rgb(0%,0%,0%);stroke-opacity:1;stroke-miterlimit:10;" d="M 77.620097 48.747679 L 77.620097 436.828591 " transform="matrix(0.998,0,0,-0.998,0,448.57205)"/>
<path style="fill:none;stroke-width:0.8;stroke-linecap:square;stroke-linejoin:miter;stroke:rgb(0%,0%,0%);stroke-opacity:1;stroke-miterlimit:10;" d="M 356.623462 48.747679 L 356.623462 436.828591 " transform="matrix(0.998,0,0,-0.998,0,448.57205)"/>
<path style="fill:none;stroke-width:0.8;stroke-linecap:square;stroke-linejoin:miter;stroke:rgb(0%,0%,0%);stroke-opacity:1;stroke-miterlimit:10;" d="M 77.620097 48.747679 L 356.623462 48.747679 " transform="matrix(0.998,0,0,-0.998,0,448.57205)"/>
<path style="fill:none;stroke-width:0.8;stroke-linecap:square;stroke-linejoin:miter;stroke:rgb(0%,0%,0%);stroke-opacity:1;stroke-miterlimit:10;" d="M 77.620097 436.828591 L 356.623462 436.828591 " transform="matrix(0.998,0,0,-0.998,0,448.57205)"/>
<path style="fill-rule:nonzero;fill:rgb(100%,100%,100%);fill-opacity:0.5;stroke-width:1;stroke-linecap:butt;stroke-linejoin:miter;stroke:rgb(79.998779%,79.998779%,79.998779%);stroke-opacity:0.5;stroke-miterlimit:10;" d="M 169.186056 378.951108 L 349.621175 378.951108 C 350.955875 378.951108 351.621269 379.620416 351.621269 380.951202 L 351.621269 429.826304 C 351.621269 431.161005 350.955875 431.826399 349.621175 431.826399 L 169.186056 431.826399 C 167.851355 431.826399 167.185962 431.161005 167.185962 429.826304 L 167.185962 380.951202 C 167.185962 379.620416 167.851355 378.951108 169.186056 378.951108 Z M 169.186056 378.951108 " transform="matrix(0.998,0,0,-0.998,0,448.57205)"/>
<path style="fill:none;stroke-width:3;stroke-linecap:square;stroke-linejoin:round;stroke:rgb(12.156677%,46.665955%,70.587158%);stroke-opacity:0.8;stroke-miterlimit:10;" d="M 171.18615 422.201679 L 191.183179 422.201679 " transform="matrix(0.998,0,0,-0.998,0,448.57205)"/>
<g style="fill:rgb(0%,0%,0%);fill-opacity:1;">
  <use xlink:href="#glyph4-0" x="198.785974" y="30.707647"/>
  <use xlink:href="#glyph4-1" x="206.402708" y="30.707647"/>
  <use xlink:href="#glyph4-2" x="210.211076" y="30.707647"/>
  <use xlink:href="#glyph4-3" x="217.827811" y="30.707647"/>
  <use xlink:href="#glyph4-4" x="221.636178" y="30.707647"/>
</g>
<g style="fill:rgb(0%,0%,0%);fill-opacity:1;">
  <use xlink:href="#glyph4-3" x="242.005994" y="30.707647"/>
  <use xlink:href="#glyph4-5" x="245.814361" y="30.707647"/>
  <use xlink:href="#glyph4-6" x="250.485001" y="30.707647"/>
  <use xlink:href="#glyph4-7" x="258.089759" y="30.707647"/>
  <use xlink:href="#glyph4-8" x="265.454998" y="30.707647"/>
</g>
<g style="fill:rgb(0%,0%,0%);fill-opacity:1;">
  <use xlink:href="#glyph4-9" x="270.174415" y="30.707647"/>
  <use xlink:href="#glyph4-7" x="277.779173" y="30.707647"/>
  <use xlink:href="#glyph4-10" x="285.144412" y="30.707647"/>
  <use xlink:href="#glyph4-3" x="292.737195" y="30.707647"/>
  <use xlink:href="#glyph4-11" x="296.545562" y="30.707647"/>
  <use xlink:href="#glyph4-12" x="304.162297" y="30.707647"/>
  <use xlink:href="#glyph4-1" x="311.779032" y="30.707647"/>
  <use xlink:href="#glyph4-2" x="315.587399" y="30.707647"/>
  <use xlink:href="#glyph4-13" x="323.204134" y="30.707647"/>
  <use xlink:href="#glyph4-14" x="334.581332" y="30.707647"/>
</g>
<path style=" stroke:none;fill-rule:nonzero;fill:rgb(0%,0%,0%);fill-opacity:1;" d="M 236.367188 26.214844 L 237.613281 26.214844 L 237.613281 27.703125 L 236.367188 27.703125 Z M 238.164062 24.121094 C 237.792969 23.976562 237.398438 23.894531 236.988281 23.894531 C 236.570312 23.894531 236.175781 23.976562 235.816406 24.121094 C 235.457031 24.277344 235.121094 24.503906 234.832031 24.792969 C 234.535156 25.089844 234.308594 25.414062 234.164062 25.773438 C 234.019531 26.132812 233.949219 26.527344 233.949219 26.960938 C 233.949219 27.367188 234.019531 27.75 234.164062 28.109375 C 234.308594 28.46875 234.535156 28.804688 234.832031 29.101562 C 235.121094 29.402344 235.457031 29.628906 235.816406 29.773438 C 236.175781 29.929688 236.570312 30 236.988281 30 C 237.398438 30 237.792969 29.929688 238.164062 29.773438 C 238.523438 29.628906 238.84375 29.402344 239.144531 29.101562 C 239.433594 28.804688 239.660156 28.46875 239.804688 28.109375 C 239.949219 27.75 240.03125 27.367188 240.03125 26.960938 C 240.03125 26.527344 239.949219 26.132812 239.804688 25.773438 C 239.660156 25.414062 239.433594 25.089844 239.144531 24.792969 C 238.84375 24.503906 238.523438 24.277344 238.164062 24.121094 Z M 235.480469 23.304688 C 235.949219 23.113281 236.449219 23.007812 236.988281 23.007812 C 237.515625 23.007812 238.019531 23.113281 238.488281 23.304688 C 238.953125 23.5 239.371094 23.785156 239.753906 24.167969 C 240.140625 24.550781 240.4375 24.984375 240.628906 25.4375 C 240.820312 25.90625 240.917969 26.410156 240.917969 26.960938 C 240.917969 27.484375 240.820312 27.988281 240.628906 28.445312 C 240.4375 28.910156 240.152344 29.332031 239.769531 29.714844 C 239.382812 30.097656 238.953125 30.382812 238.488281 30.574219 C 238.019531 30.765625 237.515625 30.863281 236.988281 30.863281 C 236.449219 30.863281 235.949219 30.765625 235.480469 30.574219 C 235.011719 30.382812 234.59375 30.097656 234.222656 29.714844 C 233.828125 29.332031 233.539062 28.910156 233.347656 28.445312 C 233.15625 27.988281 233.0625 27.484375 233.0625 26.960938 C 233.0625 26.410156 233.15625 25.90625 233.347656 25.4375 C 233.539062 24.984375 233.828125 24.550781 234.222656 24.167969 C 234.59375 23.785156 235.011719 23.5 235.480469 23.304688 Z M 235.480469 23.304688 "/>
<path style="fill:none;stroke-width:3;stroke-linecap:square;stroke-linejoin:round;stroke:rgb(100%,49.803162%,5.490112%);stroke-opacity:0.8;stroke-miterlimit:10;" d="M 171.18615 405.578586 L 191.183179 405.578586 " transform="matrix(0.998,0,0,-0.998,0,448.57205)"/>
<g style="fill:rgb(0%,0%,0%);fill-opacity:1;">
  <use xlink:href="#glyph4-15" x="198.785974" y="47.299395"/>
  <use xlink:href="#glyph4-1" x="206.402708" y="47.299395"/>
  <use xlink:href="#glyph4-2" x="210.211076" y="47.299395"/>
  <use xlink:href="#glyph4-3" x="217.827811" y="47.299395"/>
  <use xlink:href="#glyph4-4" x="221.636178" y="47.299395"/>
</g>
<g style="fill:rgb(0%,0%,0%);fill-opacity:1;">
  <use xlink:href="#glyph4-3" x="242.005994" y="47.299395"/>
  <use xlink:href="#glyph4-5" x="245.814361" y="47.299395"/>
  <use xlink:href="#glyph4-6" x="250.485001" y="47.299395"/>
  <use xlink:href="#glyph4-7" x="258.089759" y="47.299395"/>
  <use xlink:href="#glyph4-8" x="265.454998" y="47.299395"/>
</g>
<g style="fill:rgb(0%,0%,0%);fill-opacity:1;">
  <use xlink:href="#glyph4-9" x="270.174415" y="47.299395"/>
  <use xlink:href="#glyph4-7" x="277.779173" y="47.299395"/>
  <use xlink:href="#glyph4-10" x="285.144412" y="47.299395"/>
  <use xlink:href="#glyph4-3" x="292.737195" y="47.299395"/>
  <use xlink:href="#glyph4-16" x="296.545562" y="47.299395"/>
  <use xlink:href="#glyph4-17" x="304.162297" y="47.299395"/>
  <use xlink:href="#glyph4-1" x="311.779032" y="47.299395"/>
  <use xlink:href="#glyph4-17" x="315.587399" y="47.299395"/>
  <use xlink:href="#glyph4-13" x="323.204134" y="47.299395"/>
  <use xlink:href="#glyph4-14" x="334.581332" y="47.299395"/>
</g>
<path style=" stroke:none;fill-rule:nonzero;fill:rgb(0%,0%,0%);fill-opacity:1;" d="M 236.367188 42.808594 L 237.613281 42.808594 L 237.613281 44.292969 L 236.367188 44.292969 Z M 238.164062 40.710938 C 237.792969 40.570312 237.398438 40.484375 236.988281 40.484375 C 236.570312 40.484375 236.175781 40.570312 235.816406 40.710938 C 235.457031 40.867188 235.121094 41.097656 234.832031 41.382812 C 234.535156 41.683594 234.308594 42.007812 234.164062 42.367188 C 234.019531 42.722656 233.949219 43.121094 233.949219 43.550781 C 233.949219 43.957031 234.019531 44.339844 234.164062 44.699219 C 234.308594 45.058594 234.535156 45.394531 234.832031 45.695312 C 235.121094 45.992188 235.457031 46.222656 235.816406 46.367188 C 236.175781 46.519531 236.570312 46.59375 236.988281 46.59375 C 237.398438 46.59375 237.792969 46.519531 238.164062 46.367188 C 238.523438 46.222656 238.84375 45.992188 239.144531 45.695312 C 239.433594 45.394531 239.660156 45.058594 239.804688 44.699219 C 239.949219 44.339844 240.03125 43.957031 240.03125 43.550781 C 240.03125 43.121094 239.949219 42.722656 239.804688 42.367188 C 239.660156 42.007812 239.433594 41.683594 239.144531 41.382812 C 238.84375 41.097656 238.523438 40.867188 238.164062 40.710938 Z M 235.480469 39.898438 C 235.949219 39.707031 236.449219 39.597656 236.988281 39.597656 C 237.515625 39.597656 238.019531 39.707031 238.488281 39.898438 C 238.953125 40.089844 239.371094 40.378906 239.753906 40.761719 C 240.140625 41.144531 240.4375 41.574219 240.628906 42.03125 C 240.820312 42.496094 240.917969 43 240.917969 43.550781 C 240.917969 44.078125 240.820312 44.582031 240.628906 45.035156 C 240.4375 45.503906 240.152344 45.921875 239.769531 46.304688 C 239.382812 46.6875 238.953125 46.976562 238.488281 47.167969 C 238.019531 47.359375 237.515625 47.457031 236.988281 47.457031 C 236.449219 47.457031 235.949219 47.359375 235.480469 47.167969 C 235.011719 46.976562 234.59375 46.6875 234.222656 46.304688 C 233.828125 45.921875 233.539062 45.503906 233.347656 45.035156 C 233.15625 44.582031 233.0625 44.078125 233.0625 43.550781 C 233.0625 43 233.15625 42.496094 233.347656 42.03125 C 233.539062 41.574219 233.828125 41.144531 234.222656 40.761719 C 234.59375 40.378906 235.011719 40.089844 235.480469 39.898438 Z M 235.480469 39.898438 "/>
<path style="fill:none;stroke-width:3;stroke-linecap:square;stroke-linejoin:round;stroke:rgb(17.254639%,62.744141%,17.254639%);stroke-opacity:0.8;stroke-miterlimit:10;" d="M 171.18615 388.951579 L 191.183179 388.951579 " transform="matrix(0.998,0,0,-0.998,0,448.57205)"/>
<g style="fill:rgb(0%,0%,0%);fill-opacity:1;">
  <use xlink:href="#glyph4-17" x="198.785974" y="63.891142"/>
  <use xlink:href="#glyph4-15" x="206.402708" y="63.891142"/>
  <use xlink:href="#glyph4-1" x="214.019443" y="63.891142"/>
  <use xlink:href="#glyph4-2" x="217.827811" y="63.891142"/>
  <use xlink:href="#glyph4-3" x="225.444545" y="63.891142"/>
  <use xlink:href="#glyph4-4" x="229.252913" y="63.891142"/>
</g>
<g style="fill:rgb(0%,0%,0%);fill-opacity:1;">
  <use xlink:href="#glyph4-3" x="249.625489" y="63.891142"/>
  <use xlink:href="#glyph4-5" x="253.433856" y="63.891142"/>
  <use xlink:href="#glyph4-6" x="258.104495" y="63.891142"/>
  <use xlink:href="#glyph4-7" x="265.709254" y="63.891142"/>
  <use xlink:href="#glyph4-8" x="273.074493" y="63.891142"/>
</g>
<g style="fill:rgb(0%,0%,0%);fill-opacity:1;">
  <use xlink:href="#glyph4-9" x="277.793909" y="63.891142"/>
  <use xlink:href="#glyph4-7" x="285.398668" y="63.891142"/>
  <use xlink:href="#glyph4-10" x="292.763907" y="63.891142"/>
  <use xlink:href="#glyph4-3" x="300.35669" y="63.891142"/>
  <use xlink:href="#glyph4-17" x="304.165057" y="63.891142"/>
  <use xlink:href="#glyph4-15" x="311.781792" y="63.891142"/>
  <use xlink:href="#glyph4-1" x="319.398527" y="63.891142"/>
  <use xlink:href="#glyph4-18" x="323.206894" y="63.891142"/>
  <use xlink:href="#glyph4-13" x="330.823629" y="63.891142"/>
  <use xlink:href="#glyph4-14" x="342.200827" y="63.891142"/>
</g>
<path style=" stroke:none;fill-rule:nonzero;fill:rgb(0%,0%,0%);fill-opacity:1;" d="M 243.984375 59.398438 L 245.230469 59.398438 L 245.230469 60.886719 L 243.984375 60.886719 Z M 245.78125 57.304688 C 245.410156 57.160156 245.015625 57.078125 244.609375 57.078125 C 244.191406 57.078125 243.792969 57.160156 243.433594 57.304688 C 243.074219 57.460938 242.742188 57.6875 242.453125 57.976562 C 242.152344 58.273438 241.925781 58.597656 241.78125 58.957031 C 241.640625 59.316406 241.566406 59.710938 241.566406 60.144531 C 241.566406 60.550781 241.640625 60.933594 241.78125 61.292969 C 241.925781 61.652344 242.152344 61.988281 242.453125 62.285156 C 242.742188 62.585938 243.074219 62.8125 243.433594 62.957031 C 243.792969 63.113281 244.191406 63.183594 244.609375 63.183594 C 245.015625 63.183594 245.410156 63.113281 245.78125 62.957031 C 246.140625 62.8125 246.464844 62.585938 246.765625 62.285156 C 247.050781 61.988281 247.28125 61.652344 247.421875 61.292969 C 247.566406 60.933594 247.652344 60.550781 247.652344 60.144531 C 247.652344 59.710938 247.566406 59.316406 247.421875 58.957031 C 247.28125 58.597656 247.050781 58.273438 246.765625 57.976562 C 246.464844 57.6875 246.140625 57.460938 245.78125 57.304688 Z M 243.101562 56.488281 C 243.566406 56.296875 244.070312 56.191406 244.609375 56.191406 C 245.136719 56.191406 245.640625 56.296875 246.105469 56.488281 C 246.574219 56.679688 246.992188 56.96875 247.375 57.351562 C 247.757812 57.734375 248.058594 58.167969 248.25 58.621094 C 248.441406 59.089844 248.535156 59.589844 248.535156 60.144531 C 248.535156 60.667969 248.441406 61.171875 248.25 61.628906 C 248.058594 62.09375 247.769531 62.515625 247.386719 62.898438 C 247.003906 63.28125 246.574219 63.566406 246.105469 63.757812 C 245.640625 63.949219 245.136719 64.046875 244.609375 64.046875 C 244.070312 64.046875 243.566406 63.949219 243.101562 63.757812 C 242.632812 63.566406 242.214844 63.28125 241.84375 62.898438 C 241.445312 62.515625 241.160156 62.09375 240.96875 61.628906 C 240.777344 61.171875 240.679688 60.667969 240.679688 60.144531 C 240.679688 59.589844 240.777344 59.089844 240.96875 58.621094 C 241.160156 58.167969 241.445312 57.734375 241.84375 57.351562 C 242.214844 56.96875 242.632812 56.679688 243.101562 56.488281 Z M 243.101562 56.488281 "/>
</g>
</svg>
